<?xml version="1.0" encoding="UTF-8"?>
<svg version="1.1" xmlns="http://www.w3.org/2000/svg" width="800" height="800">
<path d="M0 0 C0.66 0 1.32 0 2 0 C2 6.6 2 13.2 2 20 C4.97 20.37125 7.94 20.7425 11 21.125 C57.61410966 27.58045175 104.81038258 48.63821957 138.5546875 81.890625 C141.01336074 84.01152524 142.99073183 84.88694013 146 86 C151.14478747 80.88071413 156.28553431 75.75739591 161.42358398 70.63134766 C163.16941587 68.89052279 164.91614698 67.15059922 166.66381836 65.41162109 C169.1858435 62.90182134 171.70454196 60.38872283 174.22265625 57.875 C174.99585709 57.10696045 175.76905792 56.3389209 176.56568909 55.54760742 C180.65076167 51.46295167 184.54432014 47.28775874 188.31422424 42.91162109 C191.08684135 39.76755325 194.05140761 36.82526014 197.02734375 33.875 C197.66112442 33.24263428 198.29490509 32.61026855 198.94789124 31.95874023 C200.94205978 29.97010014 202.93970353 27.98499473 204.9375 26 C206.30296745 24.63955682 207.66820386 23.27888169 209.03320312 21.91796875 C212.35280886 18.6092969 215.67553273 15.30378678 219 12 C222.96009962 13.823737 225.53656673 16.36869784 228.4375 19.5625 C228.95683105 20.1311377 229.47616211 20.69977539 230.01123047 21.28564453 C260.88586716 55.68617397 281.28832953 97.6858071 290 143 C290.16371094 143.78761719 290.32742188 144.57523438 290.49609375 145.38671875 C293.31067539 159.27353891 293.28608337 173.26443405 293.3125 187.375 C293.31801376 188.79561737 293.31801376 188.79561737 293.32363892 190.24493408 C293.34741496 201.99386161 292.80896371 213.37997094 291 225 C302.16463354 225.16482543 313.23393411 224.64567049 324.375 224 C326.09372996 223.90328899 327.81247991 223.80693264 329.53125 223.7109375 C333.68774117 223.47803442 337.84393455 223.24037542 342 223 C342 223.66 342 224.32 342 225 C341.12462585 225.36251862 341.12462585 225.36251862 340.23156738 225.73236084 C334.13013989 228.2598154 328.03041501 230.79134569 321.93164062 233.32519531 C319.65863305 234.26893978 317.38520068 235.21166185 315.11132812 236.15332031 C311.83349838 237.51095032 308.55723935 238.8723111 305.28125 240.234375 C303.76827332 240.85962067 303.76827332 240.85962067 302.22473145 241.49749756 C299.47335309 242.64376095 296.73320077 243.81109902 294 245 C292.80333206 245.51865631 292.80333206 245.51865631 291.58248901 246.04779053 C287.62320525 247.74136511 287.62320525 247.74136511 284.95272827 250.93760681 C284.16492584 253.18710433 283.63371632 255.42155736 283.125 257.75 C274.04948332 292.63281041 254.76622319 325.22754041 230.2890625 351.5234375 C228.35416784 353.61682183 226.51423094 355.75082207 224.6875 357.9375 C191.45814599 395.86984843 140.69962791 419.63747839 92 429 C90.81857422 429.24556641 90.81857422 429.24556641 89.61328125 429.49609375 C66.63887133 434.15254869 23.73818257 438.86909128 2 428 C2.33 436.25 2.66 444.5 3 453 C5.43890625 452.6390625 7.8778125 452.278125 10.390625 451.90625 C43.72787076 447.0695733 43.72787076 447.0695733 60 448 C60 448.99 60 449.98 60 451 C45.11142494 463.60319559 20.63080197 464.18137385 2 465 C2 466.98 2 468.96 2 471 C3.12535156 471.14695312 3.12535156 471.14695312 4.2734375 471.296875 C12.09369035 472.43938045 18.5962058 474.51905067 25.74951172 477.80322266 C40.7511439 484.68233908 55.74612908 488.37391559 72 491 C66.65651977 496.34348023 54.0349328 495.24296594 46.6875 495.3125 C31.94265945 495.24896376 16.30877402 492.65438701 3 486 C2.67 499.53 2.34 513.06 2 527 C-0.60855865 524.39144135 -2.56599949 522.40458301 -4.59375 519.48828125 C-5.06039063 518.82183594 -5.52703125 518.15539062 -6.0078125 517.46875 C-6.74644531 516.40140625 -6.74644531 516.40140625 -7.5 515.3125 C-8.57281126 513.77727009 -9.64573094 512.24211593 -10.71875 510.70703125 C-11.53666016 509.53261475 -11.53666016 509.53261475 -12.37109375 508.33447266 C-14.89865744 504.71208596 -17.44980761 501.10647267 -20 497.5 C-21.00012798 496.08342368 -22.00012762 494.66675675 -23 493.25 C-23.495 492.54875 -23.99 491.8475 -24.5 491.125 C-26 489 -27.5 486.875 -29 484.75 C-29.4954834 484.04810547 -29.9909668 483.34621094 -30.50146484 482.62304688 C-31.49673555 481.21299897 -32.49185391 479.80284352 -33.48681641 478.39257812 C-36.05790598 474.7487265 -38.631991 471.10704598 -41.2109375 467.46875 C-51.38026167 453.11196559 -51.38026167 453.11196559 -56 446 C-60.09174385 446.63492577 -63.21716281 448.86033735 -66.625 451.0625 C-72.73653846 455 -72.73653846 455 -75 455 C-73.3383196 450.87582937 -70.37661982 447.93445961 -67.375 444.75 C-66.859375 444.19570313 -66.34375 443.64140625 -65.8125 443.0703125 C-64.54574965 441.7097288 -63.27342185 440.35434163 -62 439 C-67.43620417 430.13745588 -73.3898761 421.68557644 -79.41943359 413.22167969 C-81.95675263 409.65516699 -84.47768877 406.07713351 -87 402.5 C-88.00125109 401.08199524 -89.00255324 399.66402653 -90.00390625 398.24609375 C-91.99357532 395.42766568 -93.9803144 392.60720541 -95.96484375 389.78515625 C-103.22807915 379.46377922 -110.58925152 369.21593687 -118 359 C-118.97283936 359.973927 -118.97283936 359.973927 -119.96533203 360.9675293 C-123.03243552 364.03469995 -126.10678154 367.09457855 -129.18063354 370.15498352 C-132.53159155 373.49252357 -135.8798779 376.83273845 -139.22802734 380.1730957 C-140.98819499 381.92823058 -142.74925857 383.68246743 -144.51123047 385.43579102 C-147.06978578 387.98213994 -149.62502982 390.5317727 -152.1796875 393.08203125 C-152.95907684 393.85625931 -153.73846619 394.63048737 -154.54147339 395.42817688 C-158.63515025 399.52143822 -162.53808965 403.704347 -166.31573486 408.08988953 C-169.08771201 411.23356476 -172.05191939 414.17524723 -175.02734375 417.125 C-175.66112442 417.75736572 -176.29490509 418.38973145 -176.94789124 419.04125977 C-178.94205978 421.02989986 -180.93970353 423.01500527 -182.9375 425 C-184.30296745 426.36044318 -185.66820386 427.72111831 -187.03320312 429.08203125 C-190.35280886 432.3907031 -193.67553273 435.69621322 -197 439 C-200.96009962 437.176263 -203.53656673 434.63130216 -206.4375 431.4375 C-206.95683105 430.8688623 -207.47616211 430.30022461 -208.01123047 429.71435547 C-238.88586716 395.31382603 -259.28832953 353.3141929 -268 308 C-268.16371094 307.21238281 -268.32742188 306.42476563 -268.49609375 305.61328125 C-271.31067539 291.72646109 -271.28608337 277.73556595 -271.3125 263.625 C-271.31801376 262.20438263 -271.31801376 262.20438263 -271.32363892 260.75506592 C-271.3795258 233.1385774 -271.3795258 233.1385774 -268 223 C-269.10730469 223.0721875 -270.21460938 223.144375 -271.35546875 223.21875 C-286.57088086 224.13030982 -301.76186225 224.10313192 -317 224 C-314.33040351 222.22026901 -312.26954102 221.26965261 -309.28491211 220.21240234 C-308.33059799 219.87220062 -307.37628387 219.5319989 -306.39305115 219.18148804 C-304.85077599 218.63919052 -304.85077599 218.63919052 -303.27734375 218.0859375 C-301.6927108 217.5241832 -301.6927108 217.5241832 -300.07606506 216.95108032 C-297.84333222 216.16068698 -295.6098676 215.37235822 -293.37573242 214.5859375 C-289.94577519 213.3779145 -286.51864988 212.16210968 -283.09179688 210.9453125 C-280.92464368 210.17922195 -278.75733131 209.41358153 -276.58984375 208.6484375 C-275.55963608 208.28285736 -274.52942841 207.91727722 -273.46800232 207.5406189 C-272.51684036 207.2067215 -271.56567841 206.8728241 -270.58569336 206.52880859 C-269.32685585 206.08485245 -269.32685585 206.08485245 -268.04258728 205.63192749 C-266 205 -266 205 -264 205 C-263.89623047 204.4028418 -263.79246094 203.80568359 -263.68554688 203.19042969 C-262.47568689 196.66275419 -260.66797159 190.51806848 -258.5 184.25 C-258.19191406 183.34378906 -257.88382813 182.43757812 -257.56640625 181.50390625 C-257.26605469 180.62089844 -256.96570313 179.73789062 -256.65625 178.828125 C-256.37442871 177.98805908 -256.09260742 177.14799316 -255.80224609 176.2824707 C-255.13603255 174.38702627 -254.36567466 172.52857318 -253.5703125 170.68359375 C-252.69189525 167.92243178 -252.69189525 167.92243178 -254.3359375 165.33203125 C-255.00882813 164.50058594 -255.68171875 163.66914063 -256.375 162.8125 C-260 158.25675676 -260 158.25675676 -260 155 C-258.22753906 153.66894531 -258.22753906 153.66894531 -255.765625 152.328125 C-254.88132813 151.82796875 -253.99703125 151.3278125 -253.0859375 150.8125 C-251.21389523 149.78107175 -249.33893854 148.75491338 -247.4609375 147.734375 C-241.84096093 144.54157672 -238.27525375 142.19214628 -236 136 C-237.06640421 133.26332011 -238.63817447 130.94931313 -240.328125 128.55859375 C-240.79081787 127.9025415 -241.25351074 127.24648926 -241.73022461 126.57055664 C-242.23175049 125.86664795 -242.73327637 125.16273926 -243.25 124.4375 C-243.77795166 123.69298584 -244.30590332 122.94847168 -244.84985352 122.18139648 C-249.40030756 115.78920288 -254.04661499 109.46946652 -258.71362305 103.16210938 C-262.69672478 97.77767755 -266.64545477 92.37017096 -270.5625 86.9375 C-271.09190186 86.20329834 -271.62130371 85.46909668 -272.16674805 84.71264648 C-274.34089909 81.69532887 -276.51319273 78.67667763 -278.68505859 75.65771484 C-285.36847999 66.36996453 -292.08286172 57.11560859 -299 48 C-294.99861331 46.40135116 -291.63718372 47.6856196 -287.70654297 48.87084961 C-286.61251411 49.18785324 -286.61251411 49.18785324 -285.49638367 49.51126099 C-283.07541535 50.21541195 -280.65890551 50.93375299 -278.2421875 51.65234375 C-276.53923091 52.15109254 -274.83603009 52.64900808 -273.13259888 53.14613342 C-268.62555417 54.46414506 -264.12221233 55.7944112 -259.6194458 57.12695312 C-256.02351439 58.18897846 -252.42511931 59.24249084 -248.82651901 60.29543114 C-219.13073662 68.98537517 -219.13073662 68.98537517 -207.78613281 72.57470703 C-206.57160431 72.95736221 -205.35707581 73.3400174 -204.10574341 73.73426819 C-201.90577649 74.43232307 -199.70863666 75.13938212 -197.5151062 75.85740662 C-196.56668854 76.15913284 -195.61827087 76.46085907 -194.64111328 76.77172852 C-193.83296173 77.03534683 -193.02481018 77.29896515 -192.19216919 77.5705719 C-188.99463483 78.19694285 -186.92918133 77.60051392 -184.22338867 75.85180664 C-183.6276001 75.37606201 -183.03181152 74.90031738 -182.41796875 74.41015625 C-181.7412915 73.87817627 -181.06461426 73.34619629 -180.36743164 72.7980957 C-179.6480542 72.22534912 -178.92867676 71.65260254 -178.1875 71.0625 C-140.58427744 41.79146765 -98.01857967 25.67815854 -51 19 C-49.515 14.05 -49.515 14.05 -48 9 C-47.67 9 -47.34 9 -47 9 C-47 12.3 -47 15.6 -47 19 C-29.33538132 21.47969322 -15.04863436 10.29640731 -1 1 C-0.67 0.67 -0.34 0.34 0 0 Z M2 45 C2 49.95 2 54.9 2 60 C4.02125 59.835 6.0425 59.67 8.125 59.5 C15.40656758 58.98041822 22.70072361 58.63663924 30 59 C30.33 59.33 30.66 59.66 31 60 C29.02 61.65 27.04 63.3 25 65 C27.74369657 68.28227404 31.38489262 69.91067244 35.125 71.8125 C51.05473969 80.10947939 51.05473969 80.10947939 53 84 C51.96939453 83.85691406 51.96939453 83.85691406 50.91796875 83.7109375 C50.01691406 83.60007813 49.11585938 83.48921875 48.1875 83.375 C47.29417969 83.25898438 46.40085937 83.14296875 45.48046875 83.0234375 C42.74309609 82.76499257 42.74309609 82.76499257 40 85 C40.268125 86.258125 40.53625 87.51625 40.8125 88.8125 C40.96332031 89.52019531 41.11414063 90.22789062 41.26953125 90.95703125 C42.10555262 93.29520867 43.21638718 94.31699048 45 96 C45.59246521 95.78924332 46.18493042 95.57848663 46.79534912 95.36134338 C52.95880104 93.16923995 59.12317256 90.97973793 65.28808594 88.79174805 C67.58910457 87.97470793 69.88988745 87.15700356 72.19042969 86.33862305 C75.49612749 85.16280431 78.80266418 83.98937259 82.109375 82.81640625 C83.13867126 82.44971329 84.16796753 82.08302032 85.22845459 81.70521545 C86.18914856 81.3649382 87.14984253 81.02466095 88.13964844 80.67407227 C88.98348083 80.3742897 89.82731323 80.07450714 90.69671631 79.76564026 C92.78456221 79.07161421 94.85828002 78.49920933 97 78 C89.80266016 94.82631483 82.59842294 111.64931868 75.3125 128.4375 C74.26432167 130.85807238 73.21614458 133.27864529 72.16796875 135.69921875 C70.24464505 140.13844476 68.31243068 144.57353947 66.370224 149.00453186 C65.22392617 151.62351074 64.08391349 154.24519551 62.94515991 156.86746216 C62.14121138 158.71278952 61.3291096 160.55455794 60.5168457 162.39624023 C60.03948975 163.49782471 59.56213379 164.59940918 59.0703125 165.734375 C58.64508301 166.70600586 58.21985352 167.67763672 57.78173828 168.67871094 C57.52376465 169.44473633 57.26579102 170.21076172 57 171 C57.33 171.66 57.66 172.32 58 173 C58.48879639 172.51120361 58.97759277 172.02240723 59.48120117 171.51879883 C63.25179036 167.74820964 67.02237956 163.97762044 70.79296875 160.20703125 C71.52410889 159.47581055 72.25524902 158.74458984 73.00854492 157.99121094 C74.60926982 156.39068228 76.21076129 154.79092032 77.8125 153.19140625 C79.19929734 151.80213249 80.58140606 150.40814952 81.95703125 149.0078125 C82.56933594 148.38648438 83.18164062 147.76515625 83.8125 147.125 C84.41707031 146.50882812 85.02164063 145.89265625 85.64453125 145.2578125 C87.57035596 143.41183127 89.52655113 141.67550217 91.54931641 139.93969727 C99.28339438 133.18674183 106.46771803 125.83502423 113.74829102 118.60180664 C115.63548884 116.73130823 117.52612829 114.86554813 119.42504883 113.00708008 C122.17173718 110.31480033 124.90193669 107.60676411 127.62890625 104.89453125 C128.91143028 103.64601128 128.91143028 103.64601128 130.21986389 102.37226868 C131.38249001 101.20536751 131.38249001 101.20536751 132.56860352 100.01489258 C133.25729019 99.33429276 133.94597687 98.65369293 134.65553284 97.95246887 C136.23959619 96.098508 136.23959619 96.098508 135.80137634 93.86088562 C128.71061736 77.3953491 98.8170542 63.30669766 83.08007812 56.82373047 C55.93977047 46.0759138 30.84398417 44.428832 2 45 Z M2 97 C2 101.29 2 105.58 2 110 C3.98 109.67 5.96 109.34 8 109 C8.33 108.34 8.66 107.68 9 107 C7.28390477 102.0323559 6.30790419 100.23092814 2 97 Z M136.9128418 101.64892578 C136.18234619 102.4067334 135.45185059 103.16454102 134.69921875 103.9453125 C133.88646484 104.77546875 133.07371094 105.605625 132.23632812 106.4609375 C131.39521484 107.34007812 130.55410156 108.21921875 129.6875 109.125 C124.3059116 114.67802983 118.97426233 120.0819163 113 125 C113.78375 125.9075 114.5675 126.815 115.375 127.75 C115.92285156 128.39582031 116.47070312 129.04164063 117.03515625 129.70703125 C118.43998905 131.34646833 119.8671266 132.96689751 121.30859375 134.57421875 C128.17553774 142.42674596 133.23008301 150.74236529 138 160 C138.48210937 160.91136719 138.96421875 161.82273437 139.4609375 162.76171875 C148.61463357 181.33147797 150.96789938 201.67899382 153 222 C165.54 222 178.08 222 191 222 C191.06097859 207.29324827 191.06097859 207.29324827 189.3125 193 C189.04022583 191.46702271 189.04022583 191.46702271 188.76245117 189.90307617 C182.92375269 158.31956026 168.34281353 130.34509974 148.125 105.625 C147.44655029 104.77578979 147.44655029 104.77578979 146.75439453 103.90942383 C145.32600751 102.15375727 145.32600751 102.15375727 143 100 C139.07979226 99.58672329 139.07979226 99.58672329 136.9128418 101.64892578 Z M105.38623047 132.38671875 C104.29140591 133.48186113 103.20209718 134.58253455 102.1171875 135.6875 C101.54292023 136.26459717 100.96865295 136.84169434 100.37698364 137.4362793 C98.5382589 139.28622702 96.70659695 141.14299749 94.875 143 C93.6319684 144.25305865 92.38848454 145.50566884 91.14453125 146.7578125 C88.09107588 149.83335632 85.04393855 152.91503802 82 156 C82.93907475 157.26118382 83.87943215 158.52141264 84.8203125 159.78125 C85.34383301 160.48314453 85.86735352 161.18503906 86.40673828 161.90820312 C87.85540872 163.81016578 89.35172108 165.65776535 90.875 167.5 C102.84327999 183.49970061 107.22506898 202.47575882 109 222 C121.54 222 134.08 222 147 222 C147 198.63243158 141.6574648 176.31516074 130 156 C129.65066406 155.38930664 129.30132813 154.77861328 128.94140625 154.14941406 C123.72554352 145.20315866 117.58912568 137.08318397 110 130 C107.65623051 129.77523155 107.65623051 129.77523155 105.38623047 132.38671875 Z M74.47802734 163.29492188 C73.42551995 164.34774703 72.37852641 165.4061019 71.3359375 166.46875 C70.50783066 167.30110168 70.50783066 167.30110168 69.66299438 168.15026855 C67.89559672 169.92888809 66.13526717 171.71432592 64.375 173.5 C63.18014563 174.70488157 61.98483883 175.90931467 60.7890625 177.11328125 C57.85409409 180.07033663 54.92544772 183.03352659 52 186 C53.26053267 189.30323343 54.2744028 191.53556789 56.8125 194 C63.70801347 201.75534523 65.20570091 212.13135499 67 222 C78.88 222 90.76 222 103 222 C103 215.12040971 102.84804911 209.63002659 101.3125 203.125 C101.13098389 202.34543945 100.94946777 201.56587891 100.76245117 200.76269531 C97.15660358 185.93508254 89.71753933 171.97894273 79 161 C76.67823191 160.77565697 76.67823191 160.77565697 74.47802734 163.29492188 Z M48 192 C46.28639979 195.94902814 44.57752932 199.90005812 42.87304688 203.85302734 C42.29231849 205.19799169 41.71029255 206.54239653 41.12695312 207.88623047 C40.28956255 209.81593154 39.45683167 211.74758484 38.625 213.6796875 C38.12226563 214.84226074 37.61953125 216.00483398 37.1015625 217.20263672 C35.87786635 219.80907902 35.87786635 219.80907902 36 222 C44.25 222 52.5 222 61 222 C59.83169419 210.31694187 57.12702233 200.74426453 49 192 C48.67 192 48.34 192 48 192 Z M33 227 C32.01 229.10375 31.02 231.2075 30 233.375 C29.443125 234.55835938 28.88625 235.74171875 28.3125 236.9609375 C26.86783959 239.75428575 26.86783959 239.75428575 27 242 C37.06354218 242.12847075 46.96724089 241.79692838 57 241 C57.495 239.80375 57.99 238.6075 58.5 237.375 C58.7784375 236.70210937 59.056875 236.02921875 59.34375 235.3359375 C60.27046583 232.44166531 60.27046583 232.44166531 60 227 C51.09 227 42.18 227 33 227 Z M67 227 C65.73361205 231.32939946 64.65361324 235.53364288 64 240 C72.77549034 240.13603068 81.43918975 239.73471349 90.1875 239.0625 C91.41275391 238.97548828 92.63800781 238.88847656 93.90039062 238.79882812 C95.06119141 238.71181641 96.22199219 238.62480469 97.41796875 238.53515625 C98.46750732 238.456604 99.5170459 238.37805176 100.59838867 238.29711914 C102.9487285 238.25625076 102.9487285 238.25625076 104 237 C104.07179964 235.48071962 104.08392007 233.95832518 104.0625 232.4375 C104.04166667 230.95833333 104.02083333 229.47916667 104 228 C95.74973532 227.07191062 87.6096172 226.8769371 79.3125 226.9375 C78.12205078 226.94201172 76.93160156 226.94652344 75.70507812 226.95117188 C72.80333064 226.96282548 69.90169374 226.97918441 67 227 Z M109 228 C109 230.97 109 233.94 109 237 C127.62382552 237.43136629 127.62382552 237.43136629 146 235 C146.33 232.69 146.66 230.38 147 228 C134.46 228 121.92 228 109 228 Z M153 228 C152.67 230.31 152.34 232.62 152 235 C164.87 234.34 177.74 233.68 191 233 C191 231.35 191 229.7 191 228 C178.46 228 165.92 228 153 228 Z M175 294 C172.16457106 294.99496083 169.43317547 296.06079961 166.66796875 297.2265625 C165.83920731 297.5712558 165.01044586 297.9159491 164.15657043 298.27108765 C162.39883432 299.00530896 160.64282913 299.74368558 158.88842773 300.48583984 C156.21475734 301.61350378 153.53283555 302.71952068 150.84960938 303.82421875 C149.14267933 304.54035753 147.43628122 305.25776576 145.73046875 305.9765625 C144.93134567 306.3038736 144.1322226 306.63118469 143.30888367 306.96841431 C138.60267707 308.98572369 135.41854861 311.06005785 132 315 C131.51200928 315.55381348 131.02401855 316.10762695 130.52124023 316.67822266 C130.12106689 317.1685498 129.72089355 317.65887695 129.30859375 318.1640625 C122.71320302 326.12302819 115.87627902 333.30414523 108 340 C107.06414062 340.80695313 106.12828125 341.61390625 105.1640625 342.4453125 C82.07637516 361.29116752 50.43145962 376.05017404 20.91796875 380.70703125 C14.15849448 381.80082278 11.19636739 383.24510291 6.75 388.625 C5.47449681 390.39860115 4.21725879 392.18592986 3 394 C2.505 394.495 2.505 394.495 2 395 C1.92773498 396.85287502 1.9161878 398.70833878 1.9375 400.5625 C1.94652344 401.57441406 1.95554687 402.58632813 1.96484375 403.62890625 C1.97644531 404.41136719 1.98804688 405.19382812 2 406 C50.31293413 408.14724152 99.6477324 387.23798265 135 355 C135.49806152 354.5472168 135.99612305 354.09443359 136.50927734 353.62792969 C153.9802101 337.51401771 167.83763167 316.8814366 177 295 C176.01 294.505 176.01 294.505 175 294 Z M119.88500977 316.70239258 C118.55167603 317.29250122 118.55167603 317.29250122 117.19140625 317.89453125 C116.15612793 318.34642822 115.12084961 318.7983252 114.05419922 319.26391602 C112.90193848 319.77494873 111.74967773 320.28598145 110.5625 320.8125 C108.01623192 321.92627226 105.46710323 323.03343159 102.91796875 324.140625 C102.22568176 324.44206924 101.53339478 324.74351349 100.82012939 325.05409241 C92.30764225 328.75200835 83.74041627 332.31869592 75.17504883 335.89193726 C72.37705078 337.06164267 69.58174246 338.23756333 66.78710938 339.4152832 C51.64113049 345.7893688 51.64113049 345.7893688 44.55670166 348.49961853 C42.67861229 349.21811153 40.80620964 349.95141576 38.93408203 350.68530273 C36.77081855 351.52883451 34.59647416 352.34477413 32.40966797 353.12524414 C27.13597891 355.19453626 27.13597891 355.19453626 23.54736328 359.39453125 C22.45377164 362.01306832 22.45377164 362.01306832 21.72338867 364.59765625 C20.99916667 367.00276747 20.0500688 368.86073776 18.75 371 C16.83204299 373.70907447 16.83204299 373.70907447 17 376 C47.61448118 370.82572149 77.84788074 357.50373022 102 338 C102.8041333 337.35611328 102.8041333 337.35611328 103.62451172 336.69921875 C111.123316 330.66364882 117.79608172 324.39019723 124 317 C122.02146772 315.71643283 122.02146772 315.71643283 119.88500977 316.70239258 Z " fill="#CC2520" transform="translate(385,145)"/>
<path d="M0 0 C0.99 0.495 0.99 0.495 2 1 C-6.22420047 20.22696293 -14.46970802 39.44406765 -22.80078125 58.625 C-25.01575007 63.72523022 -27.22021365 68.82983259 -29.41796875 73.9375 C-30.54870235 76.56283537 -31.68029054 79.1878008 -32.8125 81.8125 C-33.08653656 82.44799774 -33.36057312 83.08349548 -33.64291382 83.73825073 C-37.07515478 91.68745333 -40.63087831 99.55821205 -44.39355469 107.35644531 C-46.8335466 112.47964377 -48.84644738 117.70622794 -50.77856445 123.03881836 C-53.50244743 130.51350914 -56.74665985 137.74377565 -60 145 C-60.70864555 146.60402877 -61.41703898 148.20816899 -62.125 149.8125 C-63.60732473 153.1358044 -65.11046938 156.44940891 -66.6171875 159.76171875 C-67.28790283 161.23644653 -67.28790283 161.23644653 -67.97216797 162.7409668 C-68.31135254 163.48644775 -68.65053711 164.23192871 -69 165 C-59.47491614 164.42007861 -49.94984951 163.83987512 -40.42479801 163.2594223 C-34.83687599 162.91893141 -29.24893232 162.57879832 -23.6609745 162.23889542 C-5.85245002 161.15546372 11.95591558 160.0701707 29.76236153 158.95302582 C31.98510397 158.81367874 34.20787119 158.6747345 36.4306488 158.53594971 C37.14731374 158.49119884 37.86397867 158.44644798 38.60236073 158.40034103 C40.01972762 158.31184628 41.43709554 158.22336794 42.85446453 158.13490677 C46.21452325 157.92497679 49.57446723 157.71347836 52.93429565 157.49987793 C93.09992788 154.94658497 93.09992788 154.94658497 108.29833984 154.9909668 C114.45086109 155.0083256 117.67434103 154.00350027 122.375 149.9375 C123.94662371 148.32024851 125.49052658 146.67540844 127 145 C127.62390625 144.37867188 128.2478125 143.75734375 128.890625 143.1171875 C136.83977654 134.84577306 142.24171399 123.73089558 146 113 C148.29142779 115.29142779 148.94126704 117.05350047 150.125 120.0625 C151.66100028 123.87490789 153.26400864 127.60064698 155.0703125 131.29296875 C155.60954346 132.39983032 155.60954346 132.39983032 156.15966797 133.52905273 C156.87062665 134.97723705 157.59060566 136.4210382 158.32080078 137.85961914 C160.65577034 142.63991188 161.59510417 146.68871947 162 152 C164.31 152 166.62 152 169 152 C166.10234355 138.8924802 163.19737546 126.82359228 154.9375 115.9375 C148.56806258 106.82636248 147.34853117 93.6751417 145 83 C144.85304688 84.258125 144.70609375 85.51625 144.5546875 86.8125 C141.897124 107.76446737 135.55989474 124.04409378 120 139 C117.73046875 140.28125 117.73046875 140.28125 116 141 C116.17015625 140.09765625 116.3403125 139.1953125 116.515625 138.265625 C118.00684256 130.16669869 119.28467484 122.063997 120.38842773 113.90258789 C121.88563665 102.85569519 123.65387695 92.01651123 126.33740234 81.19067383 C128.52583973 72.30680569 129.15428324 63.55880243 129.5625 54.4375 C129.62727539 53.06754883 129.62727539 53.06754883 129.69335938 51.66992188 C129.79811757 49.44672009 129.90029017 47.22343293 130 45 C135.0917515 48.63397386 139.67806987 52.35785302 143.875 57 C144.38256836 57.5583252 144.89013672 58.11665039 145.41308594 58.69189453 C157.10457127 71.80373832 166.94310134 87.07038276 172 104 C172.29777344 104.94488281 172.59554688 105.88976562 172.90234375 106.86328125 C176.7404685 120.78311616 175.86965368 135.95919449 173 150 C180.94175377 150.24394466 188.6688558 149.92182533 196.5625 149.125 C207.31714063 148.04442778 218.08350242 147.43843269 228.875 146.875 C230.1458696 146.80856293 230.1458696 146.80856293 231.44241333 146.74078369 C236.29467345 146.48837744 241.14720149 146.24182348 246 146 C246 146.66 246 147.32 246 148 C239.55058666 150.70661908 233.09889482 153.40775391 226.64575195 156.10546875 C224.46068042 157.01963623 222.27609211 157.93495975 220.09204102 158.8515625 C208.12177863 163.87428129 196.14128815 168.81962169 183.970047 173.33825684 C179.18756586 175.12172586 174.54217848 177.06487139 169.92842102 179.25134277 C168 180 168 180 165 180 C164.98582031 180.54785156 164.97164062 181.09570312 164.95703125 181.66015625 C164.25175012 193.38307226 160.12440301 205.59829514 153 215 C152.34 215.33 151.68 215.66 151 216 C151 206.43 151 196.86 151 187 C147.7 188.32 144.4 189.64 141 191 C141.32226562 192.26070312 141.64453125 193.52140625 141.9765625 194.8203125 C144.89045431 208.00760693 144.87175244 223.46274529 137.6796875 235.14453125 C132.18423288 242.99732569 125.37780332 249.3654705 117 254 C118.96186777 248.94441768 121.26764252 244.06724501 123.5625 239.15625 C124.036875 238.1146875 124.51125 237.073125 125 236 C125.556875 234.8553125 125.556875 234.8553125 126.125 233.6875 C127.42662767 229.68964359 127.656593 225.67564138 128 221.5 C128.7132054 213.60143031 129.65863405 205.81987811 131 198 C130.59910156 198.60328125 130.19820312 199.2065625 129.78515625 199.828125 C125.44786746 205.92590062 121.86978562 208.37437513 115 211 C108.30135404 214.13524254 103.51222021 219.26037443 98.47949219 224.54272461 C94.29471641 228.9017612 94.29471641 228.9017612 91 230 C91.34449676 221.59427904 93.368976 215.946536 98 209 C95.54012231 210.05902923 93.08214009 211.12215111 90.625 212.1875 C89.94566406 212.47947266 89.26632812 212.77144531 88.56640625 213.07226562 C84.79107041 214.71294896 81.09571686 216.44374124 77.43359375 218.32421875 C71.25310979 221.44598167 64.88279428 224.10459943 58.49536133 226.76660156 C56.43551406 227.6258284 54.37879147 228.49223311 52.32226562 229.359375 C41.36701765 233.95514805 41.36701765 233.95514805 36.16015625 235.5859375 C32.16704267 236.85081085 28.6071041 238.66464062 24.89013672 240.58056641 C18.75646737 243.59299702 12.3791413 246.08706374 6.0625 248.6875 C3.69333486 249.66776431 1.32473668 250.64939046 -1.04385376 251.63104248 C-2.7150482 252.32355552 -4.38641784 253.0156459 -6.05795288 253.70733643 C-16.3849639 257.9821372 -26.69180708 262.30507231 -37 266.625 C-38.82672113 267.3902668 -40.65346221 268.155486 -42.48022461 268.9206543 C-43.35182724 269.28577621 -44.22342987 269.65089813 -45.1214447 270.02708435 C-46.80588334 270.73240528 -48.49049885 271.43730399 -50.17530823 272.14173889 C-53.73389438 273.62979895 -57.29083962 275.12104785 -60.83984375 276.63183594 C-61.92394531 277.09106445 -63.00804687 277.55029297 -64.125 278.0234375 C-65.03507812 278.41192871 -65.94515625 278.80041992 -66.8828125 279.20068359 C-69 280 -69 280 -71 280 C-70.76023437 279.17822266 -70.76023437 279.17822266 -70.515625 278.33984375 C-68.33521428 268.44540419 -70.11790701 257.10043017 -74.40625 248.0234375 C-78.2657134 243.52460516 -83.05484555 241.24424093 -88.25 238.5 C-103.8853022 230.1146978 -103.8853022 230.1146978 -110 224 C-110.48788927 220.34083048 -110.40866951 218.59519527 -108.296875 215.51953125 C-105.9667277 212.96350232 -103.80889984 211.31337249 -100.875 209.5 C-99.90949219 208.901875 -98.94398438 208.30375 -97.94921875 207.6875 C-95.24137965 206.13811392 -92.51984859 204.80262326 -89.6875 203.5 C-84.28660484 200.85115333 -80.28723333 197.73645565 -78.27734375 191.90234375 C-76.63948303 182.886159 -81.3471621 175.78818427 -86.1875 168.5625 C-87.22970703 167.07943359 -87.22970703 167.07943359 -88.29296875 165.56640625 C-90.96363804 161.55123526 -91.88820912 157.73424087 -91 153 C-88.60173896 147.22116437 -85.31353827 142.2222468 -81.3125 137.4375 C-75.86316627 130.89621963 -71.74104949 123.55125559 -67.37695312 116.26855469 C-65.25002902 112.76440952 -63.03928975 109.31628008 -60.8125 105.875 C-60.42586182 105.27719727 -60.03922363 104.67939453 -59.64086914 104.06347656 C-58.76231149 102.70786028 -57.88145197 101.35373612 -57 100 C-57.58265625 99.76925781 -58.1653125 99.53851563 -58.765625 99.30078125 C-61.51335878 98.20773621 -64.25705023 97.1049966 -67 96 C-68.61648438 95.35224609 -68.61648438 95.35224609 -70.265625 94.69140625 C-71.33296875 94.25699219 -72.4003125 93.82257813 -73.5 93.375 C-74.5003125 92.97023438 -75.500625 92.56546875 -76.53125 92.1484375 C-79 91 -79 91 -81 89 C-81.30078125 87.046875 -81.30078125 87.046875 -81.3125 84.75 C-81.32925781 84.00234375 -81.34601563 83.2546875 -81.36328125 82.484375 C-80.36969699 75.6895407 -75.48622305 70.48328175 -71.375 65.25 C-70.1939158 63.73546315 -69.01416126 62.21988817 -67.8359375 60.703125 C-67.31563965 60.03958008 -66.7953418 59.37603516 -66.25927734 58.69238281 C-64.93475853 57.0154748 -64.93475853 57.0154748 -64 55 C-62.68 55.33 -61.36 55.66 -60 56 C-59.505 58.475 -59.505 58.475 -59 61 C-55.97850314 51.50386702 -55.66293069 42.83743016 -56 33 C-52.44920141 33.66241789 -49.32542534 34.57481771 -46 36 C-47.8571466 29.8692454 -47.8571466 29.8692454 -50.75 24.1875 C-52 22 -52 22 -51.8576355 19.98820496 C-51 18 -51 18 -49.07766724 16.88032532 C-48.23622162 16.59022079 -47.394776 16.30011627 -46.52783203 16.0012207 C-45.57659454 15.66439774 -44.62535706 15.32757477 -43.64529419 14.98054504 C-42.60992523 14.63247299 -41.57455627 14.28440094 -40.5078125 13.92578125 C-39.45093231 13.55647995 -38.39405212 13.18717865 -37.30514526 12.8066864 C-33.9168348 11.62669465 -30.52123964 10.46944758 -27.125 9.3125 C-24.84193522 8.52166085 -22.55937577 7.72936123 -20.27734375 6.93554688 C-13.52878783 4.59292462 -6.77707029 2.25902343 0 0 Z " fill="#FEDF13" transform="translate(481,222)"/>
<path d="M0 0 C3.96009962 1.823737 6.53656673 4.36869784 9.4375 7.5625 C9.95683105 8.1311377 10.47616211 8.69977539 11.01123047 9.28564453 C41.88586716 43.68617397 62.28832953 85.6858071 71 131 C71.16371094 131.78761719 71.32742188 132.57523438 71.49609375 133.38671875 C74.31067539 147.27353891 74.28608337 161.26443405 74.3125 175.375 C74.31617584 176.32207825 74.31985168 177.26915649 74.32363892 178.24493408 C74.38432178 208.23135643 74.38432178 208.23135643 71 215 C66.00552723 216.01161932 61.14502326 216.10747808 56.0625 216.0625 C55.37865234 216.05798828 54.69480469 216.05347656 53.99023438 216.04882812 C52.32678396 216.0371956 50.6633795 216.01926694 49 216 C49.144375 215.22140625 49.28875 214.4428125 49.4375 213.640625 C53.45804087 189.40569811 50.30597185 168.33258968 38 147 C37.65984863 146.40380859 37.31969727 145.80761719 36.96923828 145.19335938 C32.76335401 137.94445289 27.89666471 131.41692036 22.4375 125.0625 C21.91969971 124.45978271 21.40189941 123.85706543 20.8684082 123.23608398 C16.90840035 118.75914914 12.56881079 114.84699579 8 111 C7.97083496 111.70157227 7.94166992 112.40314453 7.91162109 113.12597656 C7.23964926 127.78588511 5.73644933 141.64597071 2.39746094 155.94604492 C0.11183321 165.92368906 -1.46364258 175.92856128 -2.875 186.0625 C-2.98413727 186.83973419 -3.09327454 187.61696838 -3.20571899 188.41775513 C-4.48718642 196.67913573 -4.48718642 196.67913573 -5 205 C12.54462871 188.68577383 19.27918754 169.41210632 21 146 C23.46164774 148.46164774 23.62883201 150.00360737 24.3671875 153.3828125 C24.73650391 155.01089844 24.73650391 155.01089844 25.11328125 156.671875 C25.61580141 158.94996638 26.11585568 161.22860329 26.61328125 163.5078125 C28.59782423 172.22746251 31.3852919 178.87579228 36.5 186.1875 C40.36157805 192.1328418 42.20756889 198.19056322 44 205 C44.41397195 206.33417245 44.83003633 207.66770146 45.25 209 C45.95221632 211.80886528 46.17447113 214.1212263 46 217 C43.69 217 41.38 217 39 217 C38.74089844 215.95779297 38.74089844 215.95779297 38.4765625 214.89453125 C35.15121979 202.85923127 29.94201316 190.41301973 23 180 C22.72027344 180.73863281 22.44054687 181.47726562 22.15234375 182.23828125 C17.4434523 194.15435062 11.11073823 203.96032837 2 213 C1.17701416 213.90117554 1.17701416 213.90117554 0.33740234 214.82055664 C-4.37350723 219.56590092 -7.8693053 220.81544004 -14.5234375 220.97070312 C-15.50570312 220.95974609 -16.48796875 220.94878906 -17.5 220.9375 C-18.51320313 220.95361328 -19.52640625 220.96972656 -20.5703125 220.98632812 C-23.04827407 221.02139362 -25.52204339 221.02525265 -28 221 C-28 219.35 -28 217.7 -28 216 C-40.54 216 -53.08 216 -66 216 C-66.33 218.31 -66.66 220.62 -67 223 C-68.98 223 -70.96 223 -73 223 C-72.67 220.69 -72.34 218.38 -72 216 C-84.54 216 -97.08 216 -110 216 C-110 219.3 -110 222.6 -110 226 C-111.98 226 -113.96 226 -116 226 C-115.67 222.7 -115.34 219.4 -115 216 C-127.21 216 -139.42 216 -152 216 C-152.99 219.96 -153.98 223.92 -155 228 C-155.33 228.33 -155.66 228.66 -156 229 C-157.98 229 -159.96 229 -162 229 C-161.01 224.38 -160.02 219.76 -159 215 C-167.91 215 -176.82 215 -186 215 C-185.34 213.35 -184.68 211.7 -184 210 C-175.42 210 -166.84 210 -158 210 C-160.45842044 198.59292914 -163.37348472 189.66096149 -170.3828125 180.1171875 C-171.39948743 176.62960639 -169.79065469 173.9665124 -168.25 170.875 C-167.90799561 170.1843042 -167.56599121 169.4936084 -167.21362305 168.78198242 C-162.25694077 159.65511757 -154.47888412 152.82718469 -146.9543457 145.82519531 C-143.82229032 142.90011773 -140.82953829 139.84294196 -137.82421875 136.7890625 C-137.11910156 136.07492187 -136.41398437 135.36078125 -135.6875 134.625 C-134.99011719 133.91601562 -134.29273438 133.20703125 -133.57421875 132.4765625 C-131.56519809 130.54375659 -129.53642634 128.7253971 -127.42333984 126.91235352 C-119.84866935 120.30136121 -112.8088282 113.11132046 -105.67895508 106.02905273 C-103.84049499 104.20729253 -101.99666771 102.3909339 -100.14770508 100.57983398 C-97.47051273 97.9570513 -94.80982001 95.31852049 -92.15234375 92.67578125 C-91.31920151 91.86530838 -90.48605927 91.05483551 -89.62767029 90.21980286 C-88.87260696 89.4618895 -88.11754364 88.70397614 -87.33959961 87.9230957 C-86.66867783 87.26026077 -85.99775604 86.59742584 -85.3065033 85.914505 C-83.75822685 84.08723116 -83.75822685 84.08723116 -84.21803284 81.85295105 C-90.97777252 65.83505755 -120.70865891 52.09012613 -135.91992188 45.82373047 C-162.79272764 35.18184706 -188.42007813 33.31441058 -217 33 C-217 24.75 -217 16.5 -217 8 C-166.83692275 14.27038466 -116.94050655 33.92743087 -80.4453125 69.890625 C-77.98663926 72.01152524 -76.00926817 72.88694013 -73 74 C-67.85521253 68.88071413 -62.71446569 63.75739591 -57.57641602 58.63134766 C-55.83058413 56.89052279 -54.08385302 55.15059922 -52.33618164 53.41162109 C-49.8141565 50.90182134 -47.29545804 48.38872283 -44.77734375 45.875 C-44.00414291 45.10696045 -43.23094208 44.3389209 -42.43431091 43.54760742 C-38.34923833 39.46295167 -34.45567986 35.28775874 -30.68577576 30.91162109 C-27.91315865 27.76755325 -24.94859239 24.82526014 -21.97265625 21.875 C-21.33887558 21.24263428 -20.70509491 20.61026855 -20.05210876 19.95874023 C-18.05794022 17.97010014 -16.06029647 15.98499473 -14.0625 14 C-12.69703255 12.63955682 -11.33179614 11.27888169 -9.96679688 9.91796875 C-6.64719114 6.6092969 -3.32446727 3.30378678 0 0 Z M-82.0871582 89.64892578 C-82.81765381 90.4067334 -83.54814941 91.16454102 -84.30078125 91.9453125 C-85.11353516 92.77546875 -85.92628906 93.605625 -86.76367188 94.4609375 C-87.60478516 95.34007812 -88.44589844 96.21921875 -89.3125 97.125 C-94.6940884 102.67802983 -100.02573767 108.0819163 -106 113 C-105.21625 113.9075 -104.4325 114.815 -103.625 115.75 C-103.07714844 116.39582031 -102.52929688 117.04164063 -101.96484375 117.70703125 C-100.56001095 119.34646833 -99.1328734 120.96689751 -97.69140625 122.57421875 C-90.82446226 130.42674596 -85.76991699 138.74236529 -81 148 C-80.51789063 148.91136719 -80.03578125 149.82273437 -79.5390625 150.76171875 C-70.38536643 169.33147797 -68.03210062 189.67899382 -66 210 C-53.46 210 -40.92 210 -28 210 C-27.93902141 195.29324827 -27.93902141 195.29324827 -29.6875 181 C-29.95977417 179.46702271 -29.95977417 179.46702271 -30.23754883 177.90307617 C-36.07624731 146.31956026 -50.65718647 118.34509974 -70.875 93.625 C-71.55344971 92.77578979 -71.55344971 92.77578979 -72.24560547 91.90942383 C-73.67399249 90.15375727 -73.67399249 90.15375727 -76 88 C-79.92020774 87.58672329 -79.92020774 87.58672329 -82.0871582 89.64892578 Z M-113.61376953 120.38671875 C-114.70859409 121.48186113 -115.79790282 122.58253455 -116.8828125 123.6875 C-117.45707977 124.26459717 -118.03134705 124.84169434 -118.62301636 125.4362793 C-120.4617411 127.28622702 -122.29340305 129.14299749 -124.125 131 C-125.3680316 132.25305865 -126.61151546 133.50566884 -127.85546875 134.7578125 C-130.90892412 137.83335632 -133.95606145 140.91503802 -137 144 C-136.06092525 145.26118382 -135.12056785 146.52141264 -134.1796875 147.78125 C-133.65616699 148.48314453 -133.13264648 149.18503906 -132.59326172 149.90820312 C-131.14459128 151.81016578 -129.64827892 153.65776535 -128.125 155.5 C-116.15672001 171.49970061 -111.77493102 190.47575882 -110 210 C-97.46 210 -84.92 210 -72 210 C-72 186.63243158 -77.3425352 164.31516074 -89 144 C-89.34933594 143.38930664 -89.69867187 142.77861328 -90.05859375 142.14941406 C-95.27445648 133.20315866 -101.41087432 125.08318397 -109 118 C-111.34376949 117.77523155 -111.34376949 117.77523155 -113.61376953 120.38671875 Z M-144.52197266 151.29492188 C-145.57448005 152.34774703 -146.62147359 153.4061019 -147.6640625 154.46875 C-148.49216934 155.30110168 -148.49216934 155.30110168 -149.33700562 156.15026855 C-151.10440328 157.92888809 -152.86473283 159.71432592 -154.625 161.5 C-155.81985437 162.70488157 -157.01516117 163.90931467 -158.2109375 165.11328125 C-161.14590591 168.07033663 -164.07455228 171.03352659 -167 174 C-165.73946733 177.30323343 -164.7255972 179.53556789 -162.1875 182 C-155.29198653 189.75534523 -153.79429909 200.13135499 -152 210 C-140.12 210 -128.24 210 -116 210 C-116 203.12040971 -116.15195089 197.63002659 -117.6875 191.125 C-117.86901611 190.34543945 -118.05053223 189.56587891 -118.23754883 188.76269531 C-121.84339642 173.93508254 -129.28246067 159.97894273 -140 149 C-142.32176809 148.77565697 -142.32176809 148.77565697 -144.52197266 151.29492188 Z " fill="#118BC6" transform="translate(604,157)"/>
<path d="M0 0 C1.47290039 1.51196289 1.47290039 1.51196289 2.84765625 3.47265625 C3.36561768 4.2004126 3.8835791 4.92816895 4.41723633 5.67797852 C5.23164185 6.85831665 5.23164185 6.85831665 6.0625 8.0625 C6.62670654 8.86292725 7.19091309 9.66335449 7.7722168 10.48803711 C9.52643305 12.98412888 11.26413681 15.49111995 13 18 C14.09863958 19.57313933 15.19758623 21.14606425 16.296875 22.71875 C24 33.79618264 24 33.79618264 24 35 C10.99069108 36.05736038 -1.95415744 36.11145896 -15 36 C-7.92475509 46.34824206 -0.76306283 56.63022858 6.48388672 66.85888672 C8.99343923 70.40297296 11.49640218 73.9517061 14 77.5 C14.99996804 78.91668922 15.99996805 80.33335588 17 81.75 C27 95.91666667 37 110.08333333 47 124.25 C47.49491943 124.95108887 47.98983887 125.65217773 48.49975586 126.37451172 C49.50074856 127.79267973 50.50156208 129.21097424 51.50219727 130.62939453 C53.98556284 134.14914434 56.47189884 137.66671469 58.96484375 141.1796875 C66.42793534 151.70666485 73.74054779 162.33170348 81 173 C76.70799734 179.11638579 71.88978168 184.36510008 66.56640625 189.59375 C65.77024399 190.38471069 64.97408173 191.17567139 64.15379333 191.99060059 C61.62812334 194.4985919 59.09583201 196.9997503 56.5625 199.5 C54.03361516 202.00110551 51.50627576 204.50372422 48.98191833 207.00939941 C47.41757843 208.56165372 45.85057497 210.11123022 44.28041077 211.65759277 C40.23822608 215.66315636 36.40575348 219.76675719 32.69319153 224.07849121 C29.91897332 227.22679699 26.95158888 230.17176922 23.97265625 233.125 C23.33887558 233.75736572 22.70509491 234.38973145 22.05210876 235.04125977 C20.05794022 237.02989986 18.06029647 239.01500527 16.0625 241 C14.69703255 242.36044318 13.33179614 243.72111831 11.96679688 245.08203125 C8.64719114 248.3907031 5.32446727 251.69621322 2 255 C-1.96009962 253.176263 -4.53656673 250.63130216 -7.4375 247.4375 C-8.21649658 246.58454346 -8.21649658 246.58454346 -9.01123047 245.71435547 C-39.88586716 211.31382603 -60.28832953 169.3141929 -69 124 C-69.16371094 123.21238281 -69.32742187 122.42476563 -69.49609375 121.61328125 C-72.31067539 107.72646109 -72.28608337 93.73556595 -72.3125 79.625 C-72.31801376 78.20438263 -72.31801376 78.20438263 -72.32363892 76.75506592 C-72.3795258 49.1385774 -72.3795258 49.1385774 -69 39 C-70.66095703 39.10828125 -70.66095703 39.10828125 -72.35546875 39.21875 C-87.57088086 40.13030982 -102.76186225 40.10313192 -118 40 C-115.42041276 38.28027517 -113.50500617 37.35402939 -110.6340332 36.33935547 C-109.7507283 36.02497528 -108.8674234 35.71059509 -107.95735168 35.38668823 C-106.99818344 35.05025299 -106.0390152 34.71381775 -105.05078125 34.3671875 C-103.54441353 33.83389328 -103.54441353 33.83389328 -102.00761414 33.28982544 C-99.86718328 32.53303766 -97.72603213 31.77828454 -95.58422852 31.02539062 C-92.39626232 29.90445213 -89.21064317 28.7770605 -86.02539062 27.6484375 C-75.28798539 23.85311959 -64.52750047 20.13021589 -53.73046875 16.5078125 C-52.72566971 16.16894012 -51.72087067 15.83006775 -50.68562317 15.48092651 C-49.74933578 15.16898346 -48.8130484 14.85704041 -47.84838867 14.53564453 C-47.03021164 14.26221222 -46.21203461 13.98877991 -45.36906433 13.70706177 C-42.92976949 12.97903928 -40.50244746 12.46019825 -38 12 C-38 10.35 -38 8.7 -38 7 C-37.01 7.33 -36.02 7.66 -35 8 C-35 8.66 -35 9.32 -35 10 C-34.08186523 9.66154053 -33.16373047 9.32308105 -32.21777344 8.97436523 C-28.80747591 7.72043976 -25.39213583 6.48078704 -21.97509766 5.24536133 C-20.4974472 4.70887402 -19.0211889 4.16853592 -17.54638672 3.62426758 C-15.42510346 2.84217829 -13.29918383 2.07411664 -11.171875 1.30859375 C-10.18571198 0.93993446 -10.18571198 0.93993446 -9.17962646 0.56382751 C-3.16047988 -1.57377178 -3.16047988 -1.57377178 0 0 Z " fill="#118BC6" transform="translate(186,329)"/>
<path d="M0 0 C-10.40419139 38.23328869 -28.63108482 73.43145955 -55.7109375 102.5234375 C-57.64583216 104.61682183 -59.48576906 106.75082207 -61.3125 108.9375 C-94.54185401 146.86984843 -145.30037209 170.63747839 -194 180 C-194.78761719 180.16371094 -195.57523437 180.32742188 -196.38671875 180.49609375 C-219.36112867 185.15254869 -262.26181743 189.86909128 -284 179 C-284 171.74 -284 164.48 -284 157 C-281.48375 156.9175 -278.9675 156.835 -276.375 156.75 C-230.02370428 154.44826499 -185.2462454 136.13191329 -151 105 C-150.07960938 104.16339844 -149.15921875 103.32679688 -148.2109375 102.46484375 C-134.45434571 89.32273949 -121.36205615 72.24090616 -114.1015625 54.5546875 C-110.70764653 46.40115783 -108.02873053 41.95057291 -99.625 38.4375 C-97.07143191 37.4330486 -94.67244158 36.68187011 -92 36 C-91.34 36.33 -90.68 36.66 -90 37 C-91.1446875 38.2065625 -91.1446875 38.2065625 -92.3125 39.4375 C-96.57494771 44.54759356 -98.21997377 50.41236454 -98 57 C-93.68267314 53.34144781 -89.67073588 49.63915886 -85.875 45.4375 C-82.18811509 41.64180078 -78.80516705 39.88537109 -73.875 38 C-66.98859003 35.35252489 -63.87195005 32.12650324 -60 26 C-59.34 25.34 -58.68 24.68 -58 24 C-58.49430109 28.94301087 -59.12053426 33.79793302 -60 38.6875 C-60.78461953 43.08915989 -61.08080265 47.28395381 -61.1875 51.75 C-61.6944876 60.35922346 -65.192282 67.40969746 -69 75 C-69.56976562 76.1446875 -70.13953125 77.289375 -70.7265625 78.46875 C-71.35691406 79.72171875 -71.35691406 79.72171875 -72 81 C-60.7034286 72.24913483 -51.26997193 64.50414217 -48 50 C-47.72353192 46.37050702 -47.72037899 42.76344686 -47.75 39.125 C-47.74226562 38.18269531 -47.73453125 37.24039063 -47.7265625 36.26953125 C-47.74330519 30.21704773 -48.4837422 24.86045674 -50 19 C-48.5437455 18.32880451 -47.08492133 17.66318193 -45.625 17 C-44.40683594 16.443125 -44.40683594 16.443125 -43.1640625 15.875 C-41 15 -41 15 -39 15 C-37.9407082 18.17787541 -37.88541061 20.42588943 -37.90234375 23.76171875 C-37.90556641 24.87998047 -37.90878906 25.99824219 -37.91210938 27.15039062 C-37.92048828 28.31763672 -37.92886719 29.48488281 -37.9375 30.6875 C-37.94201172 31.86634766 -37.94652344 33.04519531 -37.95117188 34.25976562 C-37.96296727 37.17322789 -37.9794273 40.08658863 -38 43 C-34.39643335 37.29797084 -31.29343736 31.9382273 -29.25 25.5 C-28.86328125 24.3140625 -28.4765625 23.128125 -28.078125 21.90625 C-27.38537319 19.70340936 -26.98406971 17.7993017 -26.80053711 15.48706055 C-26.52650297 12.68723687 -26.17357596 10.56395493 -25 8 C-21.64991167 5.44428582 -18.0231736 4.17280725 -14.0625 2.8125 C-13.04736328 2.41998047 -12.03222656 2.02746094 -10.98632812 1.62304688 C-3.51358537 -1.17119512 -3.51358537 -1.17119512 0 0 Z " fill="#118BC6" transform="translate(671,394)"/>
<path d="M0 0 C4.52132934 -0.64827122 8.69366678 -0.99864043 13.0078125 0.734375 C18.07431556 5.0607043 21.14378473 11.28173647 24.39550781 16.99707031 C27.02824656 21.46682605 30.05412078 25.64321517 33.0703125 29.859375 C34.24868153 31.536858 35.42577773 33.21523587 36.6015625 34.89453125 C38.76281362 37.96870362 40.92931685 41.03905643 43.1015625 44.10546875 C50.51625139 54.57262457 57.7931245 65.12836214 65.0078125 75.734375 C64.77771484 74.23003906 64.77771484 74.23003906 64.54296875 72.6953125 C62.48742784 57.481309 62.88780574 42.04908347 63.0078125 26.734375 C65.40145436 28.93267068 66.91882266 31.10407562 68.46875 33.953125 C68.93394043 34.79407715 69.39913086 35.6350293 69.87841797 36.50146484 C70.37486816 37.4033252 70.87131836 38.30518555 71.3828125 39.234375 C75.59154877 46.73928208 80.01545863 54.01262321 84.8828125 61.109375 C85.40536621 61.87443359 85.92791992 62.63949219 86.46630859 63.42773438 C91.71878363 71.65633145 91.71878363 71.65633145 99.0078125 77.734375 C98.99733887 76.93330322 98.98686523 76.13223145 98.97607422 75.30688477 C98.93420438 71.63691411 98.90838824 67.96699394 98.8828125 64.296875 C98.86605469 63.03681641 98.84929687 61.77675781 98.83203125 60.47851562 C98.79587464 53.55452567 99.16092179 47.41662918 101.0078125 40.734375 C103.96587489 44.21811716 105.54300892 48.11685724 107.2578125 52.296875 C111.11196961 61.37695536 115.49177391 70.12937139 123.0078125 76.734375 C122.73517578 75.98220703 122.73517578 75.98220703 122.45703125 75.21484375 C117.21783693 59.44352547 114.8507528 41.15617748 118.0078125 24.734375 C120.81102826 26.13598288 121.28562453 27.95362065 122.6953125 30.734375 C126.93648452 38.68012306 131.80191651 45.28601461 139.0078125 50.734375 C138.36392578 49.18169922 138.36392578 49.18169922 137.70703125 47.59765625 C135.43545529 41.53611406 134.18563378 35.23606454 132.8203125 28.921875 C132.41135742 27.08206055 132.41135742 27.08206055 131.99414062 25.20507812 C130.0078125 16.14961231 130.0078125 16.14961231 130.0078125 12.734375 C133.47217087 12.41210911 135.44244786 12.3864583 138.4453125 14.234375 C141.16589728 16.88860405 143.66466792 19.62666971 146.08203125 22.55859375 C147.97314955 24.8030198 147.97314955 24.8030198 150.33984375 26.69140625 C152.8897669 28.96331393 154.50568643 30.65175107 156.0078125 33.734375 C155.89839153 41.11664312 154.42901355 48.66952744 150.0078125 54.734375 C148.47162683 56.18193457 146.88388494 57.57607281 145.2578125 58.921875 C137.42153317 65.81003307 129.98246753 75.05771067 128.62890625 85.71875 C128.37643316 92.2667617 128.91111984 96.55960533 133.0078125 101.734375 C134.94675411 103.31863217 136.8169265 104.48955341 139.0078125 105.734375 C138.33933189 113.17417094 136.92634334 120.31936941 135.3203125 127.609375 C134.92646362 129.42223999 134.92646362 129.42223999 134.5246582 131.27172852 C132.35615151 141.22623753 130.14938357 151.17256908 127.92504883 161.11474609 C127.56963013 162.70343506 127.56963013 162.70343506 127.20703125 164.32421875 C126.99908936 165.25097412 126.79114746 166.17772949 126.5769043 167.13256836 C126.02382195 169.66118207 125.50715219 172.19465476 125.0078125 174.734375 C125.62374268 174.45875732 126.23967285 174.18313965 126.87426758 173.89916992 C139.4921302 168.26658949 152.15496754 162.77462339 164.9453125 157.546875 C166.11747314 157.06565186 167.28963379 156.58442871 168.49731445 156.08862305 C170.12479614 155.42793823 170.12479614 155.42793823 171.78515625 154.75390625 C172.74671631 154.36307861 173.70827637 153.97225098 174.69897461 153.56958008 C177.0078125 152.734375 177.0078125 152.734375 179.0078125 152.734375 C177.39243258 157.59940811 174.64659982 161.41817987 171.6953125 165.546875 C171.16768311 166.28953613 170.64005371 167.03219727 170.09643555 167.79736328 C164.85164385 175.0945319 159.22471947 182.05324406 153.48144531 188.9609375 C151.37225866 191.49922972 149.28397799 194.05416911 147.1953125 196.609375 C146.49921875 197.45886719 145.803125 198.30835938 145.0859375 199.18359375 C141.6968932 203.34345452 138.3496695 207.53656553 135.0078125 211.734375 C131.00744212 207.98447503 127.97752905 204.03913705 124.9453125 199.484375 C123.97494501 198.0501132 123.00355628 196.61654192 122.03125 195.18359375 C121.53334961 194.44802246 121.03544922 193.71245117 120.52246094 192.95458984 C118.07918007 189.37315911 115.5766384 185.83434921 113.0703125 182.296875 C112.57200928 181.59272461 112.07370605 180.88857422 111.56030273 180.16308594 C110.54847981 178.73367238 109.53635396 177.30447321 108.52392578 175.87548828 C106.01437327 172.33140204 103.51141032 168.7826689 101.0078125 165.234375 C100.00784446 163.81768578 99.00784445 162.40101912 98.0078125 160.984375 C68.0078125 118.484375 68.0078125 118.484375 66.50805664 116.35961914 C65.50737062 114.94204846 64.50655667 113.52456808 63.50561523 112.10717773 C61.01505799 108.58006928 58.52669658 105.05145283 56.04296875 101.51953125 C50.93549164 94.26202388 45.78736227 87.03857914 40.5703125 79.859375 C35.5440269 72.93745311 30.68577296 65.91499954 25.88085938 58.83813477 C21.68313522 52.67445967 17.35168746 46.6190989 12.96411133 40.58959961 C8.19949601 34.03170282 3.55098814 27.39624622 -1.08227539 20.74511719 C-4.8914827 15.28375618 -8.76167459 9.87918629 -12.734375 4.53515625 C-13.9921875 2.734375 -13.9921875 2.734375 -13.9921875 1.734375 C-11.76602033 1.45168711 -9.53485655 1.19608717 -7.296875 1.03125 C-4.78845501 0.80590731 -2.46455471 0.4557498 0 0 Z " fill="#020000" transform="translate(197.9921875,363.265625)"/>
<path d="M0 0 C1.47290039 1.51196289 1.47290039 1.51196289 2.84765625 3.47265625 C3.36561768 4.2004126 3.8835791 4.92816895 4.41723633 5.67797852 C5.23164185 6.85831665 5.23164185 6.85831665 6.0625 8.0625 C6.62670654 8.86292725 7.19091309 9.66335449 7.7722168 10.48803711 C9.52643305 12.98412888 11.26413681 15.49111995 13 18 C14.09863958 19.57313933 15.19758623 21.14606425 16.296875 22.71875 C24 33.79618264 24 33.79618264 24 35 C10.99069108 36.05736038 -1.95415744 36.11145896 -15 36 C-13.88238503 37.62562178 -12.76450332 39.25106063 -11.64550781 40.87573242 C-10.66260432 42.30778924 -9.6841761 43.7429267 -8.70996094 45.1809082 C-6.16318996 48.92651906 -3.57096296 52.59570149 -0.78515625 56.16796875 C-0.27637939 56.84279297 0.23239746 57.51761719 0.7565918 58.21289062 C1.72179185 59.48909432 2.71289223 60.74629173 3.73364258 61.97851562 C7.47639956 67.02957245 7.34196971 71.18026105 6.60839844 77.29907227 C5.57422079 83.59004298 4.31391748 89.82210913 2.98904419 96.05749512 C-0.11078721 110.74711734 -2.10939552 124.93467413 -2 140 C-7.09164825 136.36609982 -11.67847407 132.64242493 -15.875 128 C-16.38256836 127.44094971 -16.89013672 126.88189941 -17.41308594 126.3059082 C-38.05213174 103.13693564 -47.46360884 77.16916986 -47.14526367 46.19726562 C-46.98239996 43.73378084 -46.53005223 41.40889572 -46 39 C-56.88916215 38.90367508 -67.75216111 38.83473589 -78.625 39.5 C-91.7351701 40.29414228 -104.87191206 40.08885107 -118 40 C-115.42041276 38.28027517 -113.50500617 37.35402939 -110.6340332 36.33935547 C-109.7507283 36.02497528 -108.8674234 35.71059509 -107.95735168 35.38668823 C-106.99818344 35.05025299 -106.0390152 34.71381775 -105.05078125 34.3671875 C-103.54441353 33.83389328 -103.54441353 33.83389328 -102.00761414 33.28982544 C-99.86718328 32.53303766 -97.72603213 31.77828454 -95.58422852 31.02539062 C-92.39626232 29.90445213 -89.21064317 28.7770605 -86.02539062 27.6484375 C-75.28798539 23.85311959 -64.52750047 20.13021589 -53.73046875 16.5078125 C-52.72566971 16.16894012 -51.72087067 15.83006775 -50.68562317 15.48092651 C-49.74933578 15.16898346 -48.8130484 14.85704041 -47.84838867 14.53564453 C-47.03021164 14.26221222 -46.21203461 13.98877991 -45.36906433 13.70706177 C-42.92976949 12.97903928 -40.50244746 12.46019825 -38 12 C-38 10.35 -38 8.7 -38 7 C-37.01 7.33 -36.02 7.66 -35 8 C-35 8.66 -35 9.32 -35 10 C-34.08186523 9.66154053 -33.16373047 9.32308105 -32.21777344 8.97436523 C-28.80747591 7.72043976 -25.39213583 6.48078704 -21.97509766 5.24536133 C-20.4974472 4.70887402 -19.0211889 4.16853592 -17.54638672 3.62426758 C-15.42510346 2.84217829 -13.29918383 2.07411664 -11.171875 1.30859375 C-10.18571198 0.93993446 -10.18571198 0.93993446 -9.17962646 0.56382751 C-3.16047988 -1.57377178 -3.16047988 -1.57377178 0 0 Z " fill="#FDDE14" transform="translate(186,329)"/>
<path d="M0 0 C0.01417969 1.14855469 0.02835937 2.29710937 0.04296875 3.48046875 C0.2847323 12.69434619 1.06935374 19.91389653 5.13671875 28.30078125 C6 31 6 31 5.4453125 33.421875 C3.57069454 36.76578812 1.44798997 39.84472358 -0.8125 42.9375 C-1.23853516 43.53240234 -1.66457031 44.12730469 -2.10351562 44.74023438 C-3.38191972 46.50988603 -4.68257439 48.25923077 -6 50 C-6.64594116 50.85609863 -6.64594116 50.85609863 -7.30493164 51.72949219 C-10.7207361 56.06516166 -12.77401709 56.97529747 -18 58 C-18 59.98 -18 61.96 -18 64 C-17.28714844 64.10957031 -16.57429688 64.21914063 -15.83984375 64.33203125 C-10.12405578 65.27825187 -5.20804382 66.45384524 0 69 C-0.515625 67.948125 -1.03125 66.89625 -1.5625 65.8125 C-2.99688183 62.51476233 -3.16452107 60.4935632 -2 57 C1.37462715 57.54723683 3.08235 58.0549 6 60 C5.95875 58.88625 5.9175 57.7725 5.875 56.625 C6 53 6 53 8 51 C9.32 51 10.64 51 12 51 C11.01 49.576875 11.01 49.576875 10 48.125 C8 45 8 45 8 43 C8.78375 43.165 9.5675 43.33 10.375 43.5 C12.88208039 44.0623707 12.88208039 44.0623707 15 44 C14.505 43.21625 14.01 42.4325 13.5 41.625 C12 39 12 39 12 37 C16.93914502 38.4297525 21.29426462 40.59972055 25.828125 42.9765625 C27.90137743 44.14208903 27.90137743 44.14208903 30 44 C29.62746094 43.24074219 29.25492187 42.48148438 28.87109375 41.69921875 C28.39800781 40.70535156 27.92492187 39.71148437 27.4375 38.6875 C26.72400391 37.20830078 26.72400391 37.20830078 25.99609375 35.69921875 C25 33 25 33 26 30 C27.37671875 30.92232422 27.37671875 30.92232422 28.78125 31.86328125 C37.89748461 37.90801151 37.89748461 37.90801151 48 42 C47.67 42.99 47.34 43.98 47 45 C43.535 45.495 43.535 45.495 40 46 C40.20625 47.11375 40.4125 48.2275 40.625 49.375 C40.74875 50.57125 40.8725 51.7675 41 53 C39 55 39 55 35.25 55.1875 C31.75995172 55.15314913 28.43274994 54.61299106 25 54 C25.721875 54.62648438 26.44375 55.25296875 27.1875 55.8984375 C28.115625 56.71570313 29.04375 57.53296875 30 58.375 C30.928125 59.18710937 31.85625 59.99921875 32.8125 60.8359375 C33.8953125 61.90714844 33.8953125 61.90714844 35 63 C35 63.66 35 64.32 35 65 C32.04335481 66.4783226 29.25770263 66.06032783 26 66 C26 66.99 26 67.98 26 69 C25.29700272 69.2461203 24.59400543 69.4922406 23.8697052 69.74581909 C17.23389362 72.06924584 10.59845493 74.39373372 3.96342945 76.71940422 C0.552565 77.91491884 -2.85844053 79.1100275 -6.26977539 80.30419922 C-9.56393543 81.45736967 -12.85771581 82.61161849 -16.1512394 83.76660538 C-18.0148875 84.41984456 -19.87892375 85.07197608 -21.7429657 85.72409058 C-22.8837709 86.12435455 -24.02457611 86.52461853 -25.19995117 86.93701172 C-26.20144699 87.28786835 -27.20294281 87.63872498 -28.23478699 88.00021362 C-30.06605544 88.66232437 -31.88094154 89.37178548 -33.67500305 90.12893677 C-36 91 -36 91 -39 91 C-43.73180004 81.62089634 -45.84552192 73.32587891 -43.23046875 62.9453125 C-40.45009322 54.77034381 -36.77624867 47.97183808 -28.84375 43.890625 C-27.93109375 43.44976562 -27.93109375 43.44976562 -27 43 C-30.70810784 41.70768535 -34.41652611 40.4162638 -38.125 39.125 C-39.17171875 38.76019531 -40.2184375 38.39539063 -41.296875 38.01953125 C-46.1884181 36.3167789 -51.07940692 34.617496 -56 33 C-51.21189246 28.79505941 -45.75346997 25.83877296 -40.25 22.6875 C-33.44309327 18.76128883 -26.65247389 14.81466752 -19.9296875 10.74609375 C-19.35669922 10.39969345 -18.78371094 10.05329315 -18.19335938 9.69639587 C-15.40823984 8.01126466 -12.62664667 6.32060341 -9.84863281 4.6237793 C-8.34961426 3.71559448 -8.34961426 3.71559448 -6.8203125 2.7890625 C-5.93617676 2.24975098 -5.05204102 1.71043945 -4.14111328 1.15478516 C-2 0 -2 0 0 0 Z " fill="#030000" transform="translate(306,207)"/>
<path d="M0 0 C-0.26011289 1.37706825 -0.53373766 2.75158555 -0.8125 4.125 C-1.03873047 5.27355469 -1.03873047 5.27355469 -1.26953125 6.4453125 C-3.46065055 14.10837143 -6.95421438 16.76069453 -13.625 20.5625 C-14.39457031 21.01818359 -15.16414063 21.47386719 -15.95703125 21.94335938 C-19.69907891 24.14659179 -23.48118616 26.26859299 -27.2890625 28.35546875 C-32.61892351 31.30268406 -37.79782054 34.49059436 -42.99005127 37.67221069 C-54.9880295 45.01975009 -67.07620312 52.20277365 -79.22949219 59.29003906 C-80.36290039 59.95100586 -81.49630859 60.61197266 -82.6640625 61.29296875 C-83.7459082 61.91478027 -84.82775391 62.5365918 -85.94238281 63.17724609 C-87.91277117 64.35186438 -89.8493441 65.58617772 -91.73730469 66.88916016 C-97.7459993 70.97400819 -97.7459993 70.97400819 -101.20263672 71.0456543 C-103.57238728 70.55620905 -105.72807389 69.83223458 -108 69 C-109.90966048 68.44172961 -111.82124102 67.88999843 -113.734375 67.34375 C-115.74065857 66.73268586 -117.74585794 66.11805155 -119.75 65.5 C-120.76449219 65.19191406 -121.77898437 64.88382812 -122.82421875 64.56640625 C-127.2971124 63.19691319 -131.67224452 61.78396027 -136 60 C-134.91195132 56.73585397 -134.3415121 56.2163679 -131.7109375 54.21484375 C-130.68141968 53.42654175 -130.68141968 53.42654175 -129.63110352 52.62231445 C-128.88658936 52.06632568 -128.1420752 51.51033691 -127.375 50.9375 C-126.60663818 50.35895264 -125.83827637 49.78040527 -125.04663086 49.18432617 C-90.54223642 23.42061861 -44.19296004 -0.71488612 0 0 Z " fill="#108AC5" transform="translate(334,165)"/>
<path d="M0 0 C0.66 0 1.32 0 2 0 C2 16.17 2 32.34 2 49 C14.42989386 47.07254832 14.42989386 47.07254832 26.85913086 45.14086914 C28.43601181 44.89714708 30.01291471 44.65356695 31.58984375 44.41015625 C32.78389832 44.22350403 32.78389832 44.22350403 34.0020752 44.03308105 C48.15216519 41.85531235 48.15216519 41.85531235 55.25390625 41.90234375 C56.56391602 41.90717773 56.56391602 41.90717773 57.90039062 41.91210938 C59.21813477 41.92467773 59.21813477 41.92467773 60.5625 41.9375 C61.93245117 41.94426758 61.93245117 41.94426758 63.33007812 41.95117188 C65.55345738 41.9628126 67.77669121 41.97916149 70 42 C70 42.99 70 43.98 70 45 C55.11142494 57.60319559 30.63080197 58.18137385 12 59 C12 60.98 12 62.96 12 65 C12.75023437 65.09796875 13.50046875 65.1959375 14.2734375 65.296875 C22.09369035 66.43938045 28.5962058 68.51905067 35.74951172 71.80322266 C50.7511439 78.68233908 65.74612908 82.37391559 82 85 C76.65651977 90.34348023 64.0349328 89.24296594 56.6875 89.3125 C36.89110246 89.22719635 19.12487083 83.81312823 2 74 C2 78.29 2 82.58 2 87 C-0.41186643 83.98516696 -2.71198509 81.06765986 -4.91796875 77.92578125 C-10.38924009 70.20290984 -15.74466734 62.71254676 -22.390625 55.9453125 C-24 54 -24 54 -24.43041992 52.12866211 C-25.10354782 49.6130161 -26.17624839 48.08543477 -27.72265625 45.99609375 C-28.26083984 45.25552734 -28.79902344 44.51496094 -29.35351562 43.75195312 C-30.49608358 42.20458967 -31.6393167 40.65771716 -32.78320312 39.11132812 C-33.32009766 38.37205078 -33.85699219 37.63277344 -34.41015625 36.87109375 C-35.15471069 35.86453735 -35.15471069 35.86453735 -35.91430664 34.83764648 C-37 33 -37 33 -37 30 C-34.9294201 28.32539961 -32.89504033 26.84792692 -30.6875 25.375 C-29.39250227 24.48079587 -28.09955563 23.58361462 -26.80859375 22.68359375 C-26.1626123 22.2335498 -25.51663086 21.78350586 -24.85107422 21.31982422 C-16.02191068 15.02459102 -7.66466336 7.66466336 0 0 Z " fill="#0AAB52" transform="translate(375,551)"/>
<path d="M0 0 C-0.75207417 13.78802644 -10.63665898 24.05062195 -20.25 33.1875 C-25.4575667 37.75667353 -30.94754917 41.39740901 -36.95507812 44.82958984 C-39.34928431 46.19991273 -41.72869576 47.59459559 -44.109375 48.98828125 C-45.94720074 50.05592084 -47.78574445 51.12232548 -49.625 52.1875 C-50.91253174 52.93652588 -50.91253174 52.93652588 -52.22607422 53.70068359 C-58.3230446 57.19113816 -64.54326757 60.23149371 -71 63 C-71.80993408 63.36971924 -72.61986816 63.73943848 -73.4543457 64.12036133 C-78.39154541 65.82638708 -83.64014067 65.3692625 -88.8125 65.375 C-89.96298828 65.39949219 -91.11347656 65.42398438 -92.29882812 65.44921875 C-99.20775961 65.47297439 -104.2200459 64.88850879 -110 61 C-111.23943359 60.18789063 -111.23943359 60.18789063 -112.50390625 59.359375 C-117.62298256 55.35736468 -121.91680063 51.05476449 -126 46 C-123.58852855 43.58852855 -121.64586055 42.99543198 -118.4362793 41.84521484 C-117.27134445 41.42493011 -116.10640961 41.00464539 -114.90617371 40.57162476 C-113.62898204 40.11770582 -112.35166044 39.66415234 -111.07421875 39.2109375 C-109.76616362 38.74324244 -108.45820698 38.27527184 -107.15034485 37.80703735 C-104.40700984 36.82647685 -101.66216301 35.85029736 -98.91625977 34.87695312 C-95.40243119 33.63084766 -91.89314232 32.37247457 -88.38496685 31.11055565 C-85.68371514 30.1407362 -82.97988052 29.17828988 -80.27524757 28.2179451 C-78.98063968 27.75710362 -77.68690374 27.29380485 -76.39407921 26.82798386 C-74.58273063 26.17640531 -72.76738706 25.53596531 -70.9519043 24.89599609 C-69.9209111 24.52896576 -68.88991791 24.16193542 -67.8276825 23.78378296 C-65.06646247 23.01842221 -62.84704097 22.84146019 -60 23 C-59.875 25.375 -59.875 25.375 -60 28 C-63.00617269 31.00617269 -65.82381598 30.59585316 -70 31 C-67.69 33.64 -65.38 36.28 -63 39 C-62.48050781 38.24074219 -61.96101563 37.48148437 -61.42578125 36.69921875 C-60.72839844 35.70535156 -60.03101563 34.71148437 -59.3125 33.6875 C-58.62800781 32.70136719 -57.94351563 31.71523438 -57.23828125 30.69921875 C-54.96170054 27.9538134 -53.22261014 26.48696814 -50 25 C-48.68 25 -47.36 25 -46 25 C-46 22.36 -46 19.72 -46 17 C-35.68087559 12.8997682 -25.32587735 8.98354259 -14.81542969 5.39819336 C-10.63065437 3.96208176 -4.28478564 0 0 0 Z " fill="#FDDC12" transform="translate(394,253)"/>
<path d="M0 0 C3.96 0 7.92 0 12 0 C12.42410156 1.05316406 12.84820312 2.10632813 13.28515625 3.19140625 C17.23908811 12.93928598 21.4566918 22.51290963 26 32 C28.68337901 27.97493148 30.80500239 23.6709786 32.99023438 19.36132812 C34.7363754 16.01044733 35.80056969 14.13295354 39 12 C41.24498835 14.85507402 43.40800889 17.76370659 45.5625 20.6875 C46.19091797 21.48478516 46.81933594 22.28207031 47.46679688 23.10351562 C51.76347386 29.04373025 52.65420948 33.14477216 51.66772461 40.38696289 C51.44737549 41.57926514 51.22702637 42.77156738 51 44 C50.88028839 44.65193329 50.76057678 45.30386658 50.63723755 45.97555542 C49.82003177 50.35045945 48.91399626 54.70429906 47.98904419 59.05749512 C44.88921279 73.74711734 42.89060448 87.93467413 43 103 C37.90835175 99.36609982 33.32152593 95.64242493 29.125 91 C28.61743164 90.44094971 28.10986328 89.88189941 27.58691406 89.3059082 C9.28364186 68.75902753 -2.0146534 44.40602153 -2.25 16.625 C-2.25942627 15.78050293 -2.26885254 14.93600586 -2.27856445 14.06591797 C-2.25195882 8.99879907 -1.63078826 4.80176543 0 0 Z " fill="#FAFCFD" transform="translate(141,366)"/>
<path d="M0 0 C5.0917515 3.63397386 9.67806987 7.35785302 13.875 12 C14.63635254 12.83748779 14.63635254 12.83748779 15.41308594 13.69189453 C27.10457127 26.80373832 36.94310134 42.07038276 42 59 C42.44666016 60.41732422 42.44666016 60.41732422 42.90234375 61.86328125 C46.7404685 75.78311616 45.86965368 90.95919449 43 105 C41.02 105.495 41.02 105.495 39 106 C38.70867188 104.76765625 38.41734375 103.5353125 38.1171875 102.265625 C35.31527284 90.80039903 32.18289994 80.46798761 24.9375 70.9375 C18.56806258 61.82636248 17.34853117 48.6751417 15 38 C14.85304688 39.258125 14.70609375 40.51625 14.5546875 41.8125 C11.897124 62.76446737 5.55989474 79.04409378 -10 94 C-12.26953125 95.28125 -12.26953125 95.28125 -14 96 C-13.82984375 95.09765625 -13.6596875 94.1953125 -13.484375 93.265625 C-11.99315744 85.16669869 -10.71532516 77.063997 -9.61157227 68.90258789 C-8.11436335 57.85569519 -6.34612305 47.01651123 -3.66259766 36.19067383 C-1.47416027 27.30680569 -0.84571676 18.55880243 -0.4375 9.4375 C-0.39431641 8.52419922 -0.35113281 7.61089844 -0.30664062 6.66992188 C-0.20188243 4.44672009 -0.09970983 2.22343293 0 0 Z " fill="#F9FCFD" transform="translate(611,267)"/>
<path d="M0 0 C3.75547913 0.63271659 6.9878418 1.72882139 10.5 3.1875 C17.40623466 5.93258983 24.456322 7.88171176 31.6640625 9.68041992 C38.03732081 11.37435863 42.60975836 13.33496282 46.34765625 19.06640625 C48.87319567 26.55228656 46.16940734 33.16876971 43.484375 40.1796875 C40.65722306 45.5512762 35.7376024 47.12596124 30.33203125 49.328125 C29.20241219 49.79626617 29.20241219 49.79626617 28.04997253 50.27386475 C25.63965831 51.27127899 23.22617603 52.26075286 20.8125 53.25 C19.24001882 53.89921773 17.66775115 54.54895286 16.09570312 55.19921875 C12.19078963 56.81290727 8.28318897 58.41996209 4.37457275 60.0246582 C0.35660195 61.67501609 -3.65946784 63.32998883 -7.67578125 64.984375 C-9.09805155 65.57001514 -10.52033228 66.15562999 -11.94262695 66.74121094 C-12.95156006 67.15661133 -13.96049316 67.57201172 -15 68 C-14.38527622 64.16939266 -13.68164938 60.38375487 -12.8359375 56.59765625 C-12.48825317 55.03640015 -12.48825317 55.03640015 -12.13354492 53.44360352 C-11.8832251 52.32783936 -11.63290527 51.2120752 -11.375 50.0625 C-11.11501221 48.898396 -10.85502441 47.73429199 -10.5871582 46.53491211 C-9.72720076 42.68939403 -8.86421599 38.84456264 -8 35 C-7.84452698 34.3080957 -7.68905396 33.61619141 -7.52886963 32.90332031 C-6.41698499 27.95595019 -5.30298852 23.00905873 -4.1875 18.0625 C-4.03488708 17.38542999 -3.88227417 16.70835999 -3.72503662 16.01077271 C-3.28990178 14.08127543 -2.85395177 12.15196205 -2.41796875 10.22265625 C-2.04321411 8.56375366 -2.04321411 8.56375366 -1.66088867 6.87133789 C-1.1319947 4.57347234 -0.58333122 2.28451202 0 0 Z " fill="#FDDD12" transform="translate(337,471)"/>
<path d="M0 0 C2.39560394 3.03395349 4.26037552 6.18005318 6.125 9.5625 C13.26071787 21.86751662 23.4097911 32.17504237 33.2734375 42.34375 C41.37373907 50.89574125 49.7092007 61.41840141 55 72 C54.72985067 70.49987666 54.45880801 68.99991422 54.1875 67.5 C54.01355713 66.52426025 53.83961426 65.54852051 53.66040039 64.54321289 C53.21925022 62.17633214 52.74662566 59.81510717 52.24316406 57.46069336 C50.34229431 48.29763178 49.49671359 39.54235574 49.55395508 30.18823242 C49.56259863 28.03796385 49.53331718 25.89025218 49.50195312 23.74023438 C49.4652256 16.0588867 49.91494045 9.6723026 54 3 C54.99 3 55.98 3 57 3 C57.79955001 4.51670364 58.58921388 6.03861998 59.375 7.5625 C59.81585938 8.40941406 60.25671875 9.25632812 60.7109375 10.12890625 C63.53704418 16.42341657 64.36029995 22.27564914 64.74609375 29.08984375 C64.86256112 30.86263475 64.97909996 32.63542105 65.09570312 34.40820312 C65.26735457 37.15876529 65.43580989 39.90949131 65.60180664 42.66040039 C66.58899697 58.74476953 68.44548769 73.75320104 74 89 C74.67157864 90.99835597 75.33950116 92.99795462 76 95 C70.35785501 94.49032922 66.27088434 92.30636958 61.4375 89.5625 C60.6431958 89.11438965 59.8488916 88.6662793 59.03051758 88.20458984 C51.82580849 84.05045789 45.32376533 79.40333045 39 74 C38.46036621 73.54399414 37.92073242 73.08798828 37.36474609 72.61816406 C20.14042565 57.90351447 7.58516906 39.75457637 1 18 C0.79503906 17.360625 0.59007812 16.72125 0.37890625 16.0625 C-0.19247894 12.95227957 -0.09173337 9.90720375 -0.0625 6.75 C-0.05347656 5.48671875 -0.04445312 4.2234375 -0.03515625 2.921875 C-0.02355469 1.95765625 -0.01195312 0.9934375 0 0 Z " fill="#F9FCFD" transform="translate(143,431)"/>
<path d="M0 0 C15.21135343 5.84686398 28.21394489 13.68453148 40 25 C41.3084403 26.08823313 42.62081897 27.17175215 43.9375 28.25 C58.88637289 41.39054149 72.84144822 62.10112376 76 82 C76.14079247 86.33942499 76.11907456 90.66039399 76 95 C73.19657072 92.51552375 71.65862334 89.77428438 69.875 86.5 C62.77430963 74.1516178 52.60305964 63.83820581 42.7265625 53.65625 C34.62626093 45.10425875 26.2907993 34.58159859 21 24 C22.29150944 31.58263821 22.29150944 31.58263821 24.0625 39.0625 C26.39886832 48.13332184 26.21009501 57.63464874 26.25 66.9375 C26.270625 68.13568359 26.29125 69.33386719 26.3125 70.56835938 C26.34460591 77.93265229 26.04671885 85.17335661 23 92 C21.515 92.99 21.515 92.99 20 94 C10.96766776 81.5416107 11.01064044 66.89464743 10 52.0625 C8.87726008 35.84784987 6.92801956 21.37861409 1.63256836 5.96020508 C0.99660952 3.98949358 0.47938254 2.013969 0 0 Z " fill="#FAFCFD" transform="translate(576,209)"/>
<path d="M0 0 C18.30189361 -1.00847169 35.0953887 5.15735403 48.9140625 17.09375 C49.60242188 17.7228125 50.29078125 18.351875 51 19 C51.58523438 19.5053125 52.17046875 20.010625 52.7734375 20.53125 C63.61646524 30.50887177 74.33766082 46.01298247 79 60 C78.43796875 59.82984375 77.8759375 59.6596875 77.296875 59.484375 C70.86118921 57.62868646 64.37524025 56.19238248 57.8125 54.875 C56.54841309 54.61928223 56.54841309 54.61928223 55.25878906 54.35839844 C45.72565018 52.47720234 36.5060349 51.82975157 26.80429077 51.61239624 C-9.56799245 50.7550417 -9.56799245 50.7550417 -22 45 C-22 44.34 -22 43.68 -22 43 C3.7609988 36.15723469 34.02883837 36.18100032 59 46 C51.87824825 37.66233941 42.36633111 33.38289073 32.5 29 C28.7838788 27.17356596 26.7560521 24.51860751 24.171875 21.34765625 C17.09396606 13.69689497 7.78603473 7.50870431 -1 2 C-0.67 1.34 -0.34 0.68 0 0 Z " fill="#0AAE54" transform="translate(458,92)"/>
<path d="M0 0 C9.76274948 8.50108491 9.76274948 8.50108491 11.29296875 11.56152344 C9.98714844 11.63628906 8.68132812 11.71105469 7.3359375 11.78808594 C-9.19552513 12.86973437 -25.50152934 15.08067551 -41.88989258 17.44091797 C-42.8001973 17.57200455 -43.71050201 17.70309113 -44.64839172 17.83815002 C-46.35593321 18.08505675 -48.06322116 18.33372658 -49.77018738 18.58457947 C-64.31707649 20.70317877 -64.31707649 20.70317877 -70.9609375 20.65917969 C-71.83427734 20.65595703 -72.70761719 20.65273437 -73.60742188 20.64941406 C-74.92516602 20.6368457 -74.92516602 20.6368457 -76.26953125 20.62402344 C-77.63948242 20.61725586 -77.63948242 20.61725586 -79.03710938 20.61035156 C-81.26048863 20.59871083 -83.48372246 20.58236195 -85.70703125 20.56152344 C-85.70703125 19.57152344 -85.70703125 18.58152344 -85.70703125 17.56152344 C-67.57178926 2.21002063 -36.1094288 3.86078785 -13.70703125 2.56152344 C-16.22710474 1.80889439 -18.74801379 1.05928937 -21.26953125 0.31152344 C-22.04167969 0.08118408 -22.81382812 -0.14915527 -23.609375 -0.38647461 C-28.44852365 -1.81689918 -33.29909458 -3.07286044 -38.20703125 -4.25097656 C-43.86849751 -5.72164256 -48.81330417 -7.78719209 -54.01953125 -10.37597656 C-67.84619854 -17.21361677 -82.55717947 -20.07970217 -97.70703125 -22.43847656 C-76.32740309 -43.81810472 -17.58153985 -14.81556533 0 0 Z " fill="#0AAE54" transform="translate(464.70703125,111.4384765625)"/>
<path d="M0 0 C10.11856652 1.58045833 18.48211867 8.43800049 26 15 C26.62648438 15.53109375 27.25296875 16.0621875 27.8984375 16.609375 C38.89569623 26.66116804 44.92218566 41.48114589 47 56 C47.08747045 57.95818278 47.13056593 59.91877212 47.1328125 61.87890625 C47.13410156 62.96494141 47.13539063 64.05097656 47.13671875 65.16992188 C47.13285156 66.28947266 47.12898437 67.40902344 47.125 68.5625 C47.12886719 69.68591797 47.13273438 70.80933594 47.13671875 71.96679688 C47.13542969 73.05154297 47.13414062 74.13628906 47.1328125 75.25390625 C47.13168457 76.23689697 47.13055664 77.2198877 47.12939453 78.23266602 C47.0036783 80.921333 46.60162204 83.38052451 46 86 C43.18685597 84.70486945 41.5418057 83.58253408 39.1875 81.4375 C29.03485011 72.56500184 16.09217343 66.88284329 3.9375 61.3125 C2.58235074 60.68235315 1.22753242 60.05149411 -0.12695312 59.41992188 C-8.68181403 55.44626807 -17.3088788 51.66589101 -26 48 C-26 47.67 -26 47.34 -26 47 C-5.90130648 46.05623526 16.15454982 50.36215231 31.6875 63.875 C32.80137287 64.9062811 33.90958165 65.94395014 35 67 C34.50803176 61.99086885 32.98149375 59.10163205 30.125 55 C27.03481612 50.34036006 25.37481486 46.40292819 24.375 40.8125 C21.99470338 27.67037746 12.64864642 18.1522087 4.53051758 7.94775391 C4.02544678 7.30499512 3.52037598 6.66223633 3 6 C2.16021606 4.9488501 2.16021606 4.9488501 1.3034668 3.87646484 C0 2 0 2 0 0 Z " fill="#0AAE54" transform="translate(522,107)"/>
<path d="M0 0 C0 3 0 3 -1.87890625 5.12890625 C-19.16821478 20.80756595 -38.39350577 30.43086501 -61 36 C-59.75613525 36.01981934 -58.51227051 36.03963867 -57.23071289 36.06005859 C-52.53196919 36.13722194 -47.83349166 36.22574908 -43.13500977 36.31738281 C-41.1171603 36.3552225 -39.09925362 36.39014563 -37.08129883 36.421875 C-26.57972117 36.58893962 -16.22246619 36.90080488 -5.80264282 38.27288818 C0.48285424 39.10025732 6.73024431 39.42953487 13.0625 39.625 C14.13048828 39.66367187 15.19847656 39.70234375 16.29882812 39.7421875 C18.86574012 39.83427403 21.43268063 39.92024743 24 40 C24 40.66 24 41.32 24 42 C18.46569931 44.23620728 13.26582667 45.71569936 7.375 46.625 C6.58722168 46.74979736 5.79944336 46.87459473 4.98779297 47.00317383 C-24.09287439 51.44335272 -61.18678922 52.33699537 -87 36 C-87.66 35.01 -88.32 34.02 -89 33 C-88.44763672 32.84442627 -87.89527344 32.68885254 -87.32617188 32.52856445 C-81.77574465 30.96218974 -76.23171749 29.37473361 -70.69140625 27.77294922 C-68.48494847 27.13927312 -66.2752003 26.52146756 -64.0625 25.91015625 C-42.06910431 19.51953141 -20.91455172 9.21563864 0 0 Z " fill="#0AAE54" transform="translate(508,581)"/>
<path d="M0 0 C0.99 1.485 0.99 1.485 2 3 C1.44763672 3.15557373 0.89527344 3.31114746 0.32617188 3.47143555 C-5.22425535 5.03781026 -10.76828251 6.62526639 -16.30859375 8.22705078 C-18.51505153 8.86072688 -20.7247997 9.47853244 -22.9375 10.08984375 C-44.93089569 16.48046859 -66.08544828 26.78436136 -87 36 C-87 33 -87 33 -85.12109375 30.87109375 C-67.83178522 15.19243405 -48.60649423 5.56913499 -26 0 C-27.24386475 -0.01981934 -28.48772949 -0.03963867 -29.76928711 -0.06005859 C-34.46803081 -0.13722194 -39.16650834 -0.22574908 -43.86499023 -0.31738281 C-45.8828397 -0.3552225 -47.90074638 -0.39014563 -49.91870117 -0.421875 C-60.42027883 -0.58893962 -70.77753381 -0.90080488 -81.19735718 -2.27288818 C-87.48285424 -3.10025732 -93.73024431 -3.42953487 -100.0625 -3.625 C-101.13048828 -3.66367188 -102.19847656 -3.70234375 -103.29882812 -3.7421875 C-105.86574012 -3.83427403 -108.43268063 -3.92024743 -111 -4 C-111 -4.66 -111 -5.32 -111 -6 C-105.46569931 -8.23620728 -100.26582667 -9.71569936 -94.375 -10.625 C-93.19333252 -10.81219604 -93.19333252 -10.81219604 -91.98779297 -11.00317383 C-62.90712561 -15.44335272 -25.81321078 -16.33699537 0 0 Z " fill="#0AAE54" transform="translate(403,108)"/>
<path d="M0 0 C0.495 1.485 0.495 1.485 1 3 C-0.59521109 5.20852141 -2.1887593 7.16914498 -4 9.1875 C-4.51038818 9.77120361 -5.02077637 10.35490723 -5.54663086 10.95629883 C-6.56585994 12.12032584 -7.58915108 13.28081005 -8.61669922 14.4375 C-10.29297043 16.33092318 -11.92429746 18.26113171 -13.5625 20.1875 C-14.70047848 21.46537181 -15.84683876 22.7358123 -17 24 C-17.72316406 24.80050781 -18.44632813 25.60101562 -19.19140625 26.42578125 C-25.48283488 33.08075953 -32.0658722 37.54793456 -40 42 C-36.49342952 43.20718 -34.23070665 42.77793805 -30.6875 41.8125 C-29.66350098 41.53712402 -28.63950195 41.26174805 -27.58447266 40.97802734 C-25.30602236 40.35634965 -23.03197212 39.71813026 -20.7644043 39.05786133 C-10.32897813 36.09778764 0.14934141 34.41450011 10.875 32.875 C13.46390335 32.49733039 16.05239001 32.1170964 18.64041138 31.73342896 C20.23267386 31.49798074 21.82547507 31.26613235 23.41891479 31.03878784 C28.67529304 30.26968704 33.82910288 29.21567859 39 28 C29.31103464 41.69819241 11.48870961 46.51904091 -4.1875 49.40234375 C-23.50261655 52.15625685 -43.7350898 48.87108823 -63 47 C-59.66233065 43.60996136 -56.35765282 40.66226014 -52.5 37.875 C-48.08334921 34.6084062 -43.80767819 31.24799844 -39.625 27.6875 C-38.8196582 27.00312866 -38.8196582 27.00312866 -37.99804688 26.30493164 C-35.14727644 23.8696872 -32.3249187 21.40583221 -29.5234375 18.9140625 C-20.63132366 11.05422318 -11.56244571 3.47561612 0 0 Z " fill="#0AAE54" transform="translate(559,561)"/>
<path d="M0 0 C-3.33766935 3.39003864 -6.64234718 6.33773986 -10.5 9.125 C-14.91665079 12.3915938 -19.19232181 15.75200156 -23.375 19.3125 C-23.91189453 19.76874756 -24.44878906 20.22499512 -25.00195312 20.69506836 C-27.85272356 23.1303128 -30.6750813 25.59416779 -33.4765625 28.0859375 C-42.67432918 36.21707456 -51.86990484 43.93331762 -64 47 C-62.61850499 37.71808037 -51.18615751 28.66201578 -45 22 C-44.30390625 21.2265625 -43.6078125 20.453125 -42.890625 19.65625 C-36.97660649 13.35371932 -30.47141052 9.23803348 -23 5 C-26.50657048 3.79282 -28.76929335 4.22206195 -32.3125 5.1875 C-33.33649902 5.46287598 -34.36049805 5.73825195 -35.41552734 6.02197266 C-37.69397764 6.64365035 -39.96802788 7.28186974 -42.2355957 7.94213867 C-52.67102187 10.90221236 -63.14934141 12.58549989 -73.875 14.125 C-76.46390335 14.50266961 -79.05239001 14.8829036 -81.64041138 15.26657104 C-83.23267386 15.50201926 -84.82547507 15.73386765 -86.41891479 15.96121216 C-91.67529304 16.73031296 -96.82910288 17.78432141 -102 19 C-92.31103464 5.30180759 -74.48870961 0.48095909 -58.8125 -2.40234375 C-39.49738345 -5.15625685 -19.2649102 -1.87108823 0 0 Z " fill="#0AAE54" transform="translate(328,117)"/>
<path d="M0 0 C0.66 0 1.32 0 2 0 C2 16.5 2 33 2 50 C-19.64531159 52.88604155 -19.64531159 52.88604155 -23 52 C-25.80947827 49.79476614 -27.58732427 47.17734122 -29.5 44.1875 C-30.01046875 43.44951172 -30.5209375 42.71152344 -31.046875 41.95117188 C-32.39786309 39.98690629 -33.70561745 38.00180907 -35 36 C-35.66 35.01 -36.32 34.02 -37 33 C-37 32.01 -37 31.02 -37 30 C-34.9294201 28.32539961 -32.89504033 26.84792692 -30.6875 25.375 C-29.39250227 24.48079587 -28.09955563 23.58361462 -26.80859375 22.68359375 C-26.1626123 22.2335498 -25.51663086 21.78350586 -24.85107422 21.31982422 C-16.02191068 15.02459102 -7.66466336 7.66466336 0 0 Z " fill="#030101" transform="translate(375,551)"/>
<path d="M0 0 C-0.81404297 0.76183594 -0.81404297 0.76183594 -1.64453125 1.5390625 C-6.49993763 6.2107508 -9.7260377 10.02499264 -11.8125 16.53515625 C-13.77089818 22.46747075 -15.85342843 26.55700525 -20.18359375 31.07421875 C-23.08731697 34.15278982 -25.51683052 37.57995705 -28 41 C-25.07551593 41 -23.86086968 40.67194551 -21.25390625 39.55053711 C-20.13628906 39.0738987 -20.13628906 39.0738987 -18.99609375 38.58763123 C-17.79146484 38.06278893 -17.79146484 38.06278893 -16.5625 37.52734375 C-15.7271875 37.1666127 -14.891875 36.80588165 -14.03125 36.43421936 C-12.25803971 35.6661097 -10.48609819 34.89506548 -8.71533203 34.12133789 C-6.04263962 32.95609014 -3.36354166 31.80664618 -0.68359375 30.65820312 C7.65032424 27.04950679 15.560829 23.47408647 23.00390625 18.21704102 C25 17 25 17 28 17 C19.10058418 32.7655214 6.09652411 42.15603756 -11.0625 47.375 C-23.08369458 50.42757301 -34.66617631 51.31093673 -47 51 C-45.42775086 47.46657693 -43.27372275 44.70888771 -40.875 41.6875 C-37.36325042 37.16258235 -34.57583189 32.54755518 -32 27.4375 C-26.92232458 17.48474968 -20.51957391 9.06144298 -11 3 C-10.36835937 2.5771875 -9.73671875 2.154375 -9.0859375 1.71875 C-5.60904495 -0.47095254 -3.89796474 -1.29649697 0 0 Z " fill="#0AAE54" transform="translate(603,536)"/>
<path d="M0 0 C-1.57224914 3.53342307 -3.72627725 6.29111229 -6.125 9.3125 C-9.63674958 13.83741765 -12.42416811 18.45244482 -15 23.5625 C-20.07767542 33.51525032 -26.48042609 41.93855702 -36 48 C-36.63164062 48.4228125 -37.26328125 48.845625 -37.9140625 49.28125 C-42.40386294 52.108869 -42.40386294 52.108869 -45.203125 51.59765625 C-45.79609375 51.40042969 -46.3890625 51.20320313 -47 51 C-46.18595703 50.23816406 -46.18595703 50.23816406 -45.35546875 49.4609375 C-40.50006237 44.7892492 -37.2739623 40.97500736 -35.1875 34.46484375 C-33.22910182 28.53252925 -31.14657157 24.44299475 -26.81640625 19.92578125 C-23.91268303 16.84721018 -21.48316948 13.42004295 -19 10 C-21.92448407 10 -23.13913032 10.32805449 -25.74609375 11.44946289 C-26.49117187 11.76722183 -27.23625 12.08498077 -28.00390625 12.41236877 C-28.80699219 12.76226364 -29.61007813 13.11215851 -30.4375 13.47265625 C-31.69046875 14.01375282 -31.69046875 14.01375282 -32.96875 14.56578064 C-34.74196029 15.3338903 -36.51390181 16.10493452 -38.28466797 16.87866211 C-40.95736038 18.04390986 -43.63645834 19.19335382 -46.31640625 20.34179688 C-54.65032424 23.95049321 -62.560829 27.52591353 -70.00390625 32.78295898 C-72 34 -72 34 -75 34 C-66.10058418 18.2344786 -53.09652411 8.84396244 -35.9375 3.625 C-23.91630542 0.57242699 -12.33382369 -0.31093673 0 0 Z " fill="#0AAE54" transform="translate(268,138)"/>
<path d="M0 0 C6.62839083 7.78115446 4.67211317 21.38163935 4 31 C1.7942972 42.6461108 -6.73465619 52.87954438 -16.2890625 59.61328125 C-18.16942516 60.79266065 -20.05803368 61.92572076 -22 63 C-20.03813223 57.94441768 -17.73235748 53.06724501 -15.4375 48.15625 C-14.963125 47.1146875 -14.48875 46.073125 -14 45 C-13.62875 44.236875 -13.2575 43.47375 -12.875 42.6875 C-11.57337233 38.68964359 -11.343407 34.67564138 -11 30.5 C-10.2867946 22.60143031 -9.34136595 14.81987811 -8 7 C-8.40089844 7.60328125 -8.80179688 8.2065625 -9.21484375 8.828125 C-13.55213254 14.92590062 -17.13021438 17.37437513 -24 20 C-30.69864596 23.13524254 -35.48777979 28.26037443 -40.52050781 33.54272461 C-44.70528359 37.9017612 -44.70528359 37.9017612 -48 39 C-47.69608795 31.58454601 -46.82245267 25.03277472 -41.53770447 19.45724487 C-37.15741941 15.61098098 -32.8410336 13.26828697 -27.44140625 11.1328125 C-26.65225327 10.80836151 -25.86310028 10.48391052 -25.05003357 10.14962769 C-22.55910511 9.1288285 -20.06116685 8.12668628 -17.5625 7.125 C-15.85952578 6.43091366 -14.15704632 5.73561207 -12.45507812 5.0390625 C-8.30896779 3.34528429 -4.15647164 1.66818103 0 0 Z " fill="#F8FBFB" transform="translate(620,413)"/>
<path d="M0 0 C2.53662279 1.01779982 3.36174266 2.15295212 4.92285156 4.38256836 C5.45112549 5.12571289 5.97939941 5.86885742 6.52368164 6.63452148 C7.07435303 7.4330957 7.62502441 8.23166992 8.19238281 9.05444336 C8.76174561 9.86333008 9.3311084 10.6722168 9.91772461 11.50561523 C11.07240029 13.14935104 12.2222514 14.79648683 13.3671875 16.44702148 C14.84998359 18.58146976 16.34880265 20.70313604 17.85644531 22.82006836 C24.00488281 31.51492377 24.00488281 31.51492377 24.00488281 33.80444336 C20.9036657 34.97905891 17.7984604 36.14274792 14.69238281 37.30444336 C13.81130859 37.63831055 12.93023437 37.97217773 12.02246094 38.31616211 C10.75112305 38.78989258 10.75112305 38.78989258 9.45410156 39.27319336 C8.67381592 39.56645508 7.89353027 39.8597168 7.08959961 40.16186523 C5.00488281 40.80444336 5.00488281 40.80444336 2.00488281 40.80444336 C0.17978084 38.46612635 -1.44582336 36.15938679 -3.05761719 33.67944336 C-4.03294728 32.21768281 -5.00953788 30.75676262 -5.98730469 29.29663086 C-6.48327148 28.55123047 -6.97923828 27.80583008 -7.49023438 27.0378418 C-9.82101796 23.578723 -12.24647222 20.18982193 -14.68261719 16.80444336 C-15.11646729 16.19971191 -15.55031738 15.59498047 -15.99731445 14.97192383 C-16.99523509 13.58179576 -17.99495277 12.19295795 -18.99511719 10.80444336 C-15.46670331 7.87384546 -11.86467105 5.35316408 -7.93261719 2.99194336 C-6.91039062 2.36674805 -5.88816406 1.74155273 -4.83496094 1.09741211 C-1.99511719 -0.19555664 -1.99511719 -0.19555664 0 0 Z " fill="#030000" transform="translate(159.9951171875,294.195556640625)"/>
<path d="M0 0 C-0.2950255 14.88537725 -5.60192947 27.36561392 -15.75 38.1875 C-23.38981508 45.46558141 -34.07866661 51.71825627 -44.85546875 52.1015625 C-45.91701172 52.05128906 -45.91701172 52.05128906 -47 52 C-45.5798905 48.8645107 -43.84886309 46.49296542 -41.625 43.875 C-38.36603821 39.89836071 -35.53153196 35.80320127 -32.75927734 31.47460938 C-26.94076928 22.41648552 -12.49695164 0 0 0 Z " fill="#FAFCFD" transform="translate(602,441)"/>
<path d="M0 0 C-27.4204522 37.05972379 -71.74958045 63.39096669 -117.42529297 70.37060547 C-119.28054752 70.6053088 -121.13996184 70.80683384 -123 71 C-122.11509138 68.02348919 -121.47749943 66.35698332 -118.95703125 64.47265625 C-115.19074899 62.59697803 -111.45439865 61.71196153 -107.375 60.75 C-97.28251879 58.22419371 -87.65687397 54.85139103 -78 51 C-77.30277832 50.72430176 -76.60555664 50.44860352 -75.88720703 50.16455078 C-60.31655616 43.92808947 -46.05969271 35.53940113 -33 25 C-32.4745459 24.58137695 -31.9490918 24.16275391 -31.40771484 23.73144531 C-24.07540935 17.86299078 -17.6259977 11.68587056 -11.53515625 4.53125 C-7.99146721 0.99302119 -5.00382745 -1.66794248 0 0 Z " fill="#0F8BC5" transform="translate(520,457)"/>
<path d="M0 0 C2.29142779 2.29142779 2.94126704 4.05350047 4.125 7.0625 C5.66100028 10.87490789 7.26400864 14.60064698 9.0703125 18.29296875 C9.4297998 19.03087646 9.78928711 19.76878418 10.15966797 20.52905273 C10.87062665 21.97723705 11.59060566 23.4210382 12.32080078 24.85961914 C14.65577034 29.63991188 15.59510417 33.68871947 16 39 C-14.12652044 41.38776806 -14.12652044 41.38776806 -28 41 C-23.43067227 36.39128151 -23.43067227 36.39128151 -21.078125 34.25390625 C-10.90425909 24.84090638 -4.93676975 12.73880194 0 0 Z " fill="#F9FCFD" transform="translate(627,335)"/>
<path d="M0 0 C2.31 0 4.62 0 7 0 C7.63615234 1.57974609 7.63615234 1.57974609 8.28515625 3.19140625 C12.23908811 12.93928598 16.4566918 22.51290963 21 32 C23.68337901 27.97493148 25.80500239 23.6709786 27.99023438 19.36132812 C29.7363754 16.01044733 30.80056969 14.13295354 34 12 C36.475 15.96 36.475 15.96 39 20 C38.48050781 20.7528125 37.96101563 21.505625 37.42578125 22.28125 C28.17531982 36.3706774 25.2913742 50.34705512 24 67 C21.51907493 64.51907493 21.44764057 63.06689475 20.80859375 59.64453125 C18.40359209 47.61152108 16.06389415 37.38450621 9.1171875 27.1953125 C4.11187548 19.64117001 -0.56151152 9.26494007 0 0 Z " fill="#178EC6" transform="translate(146,366)"/>
<path d="M0 0 C0.33 0 0.66 0 1 0 C1.1802845 5.04152732 0.64465623 9.21875162 -0.75 14.0625 C-1.07484375 15.22910156 -1.3996875 16.39570312 -1.734375 17.59765625 C-6.98001573 31.69936328 -25.0911582 41.43350029 -38 48 C-38.66 48 -39.32 48 -40 48 C-38.11092388 40.55164271 -34.69734963 35.02826536 -30 29 C-29.46375 28.3090625 -28.9275 27.618125 -28.375 26.90625 C-24.38956586 22.07774325 -19.81635252 18.27064086 -14.9296875 14.37890625 C-11.82595895 11.85867866 -8.83597745 9.24728872 -5.875 6.5625 C-4.50988281 5.32693359 -4.50988281 5.32693359 -3.1171875 4.06640625 C-0.95380881 2.18071672 -0.95380881 2.18071672 0 0 Z " fill="#0AAE54" transform="translate(641,512)"/>
<path d="M0 0 C-1.88907612 7.44835729 -5.30265037 12.97173464 -10 19 C-10.53625 19.6909375 -11.0725 20.381875 -11.625 21.09375 C-15.61110593 25.92307065 -20.18397513 29.73189585 -25.07421875 33.62109375 C-30.61639474 38.127349 -35.94933774 42.94933774 -41 48 C-41.1802845 42.95847268 -40.64465623 38.78124838 -39.25 33.9375 C-38.92515625 32.77089844 -38.6003125 31.60429687 -38.265625 30.40234375 C-34.37752864 19.9500847 -12.13398557 0 0 0 Z " fill="#0AAE54" transform="translate(223,165)"/>
<path d="M0 0 C0.33 0 0.66 0 1 0 C1 14.85 1 29.7 1 45 C-18 52 -18 52 -21 52 C-22.52150158 48.95699684 -22.23899393 46.345915 -22 43 C-19.09907498 41.06604999 -18.10325263 40.69868059 -14.8125 40.375 C-13.554375 40.25125 -12.29625 40.1275 -11 40 C-11.56054661 36.63672037 -12.41841038 34.00887781 -14 31 C-12.82630859 29.73542969 -12.82630859 29.73542969 -11.62890625 28.4453125 C-10.60665175 27.33865166 -9.58452284 26.23187479 -8.5625 25.125 C-8.04623047 24.56941406 -7.52996094 24.01382813 -6.99804688 23.44140625 C-4.17895264 20.45250685 -4.17895264 20.45250685 -2 17 C-5.46941546 17.45822468 -8.67395049 17.89131683 -12 19 C-10.68981854 14.38706943 -8.87491682 11.07617606 -6 7.25 C-5.29875 6.30640625 -4.5975 5.3628125 -3.875 4.390625 C-2 2 -2 2 0 0 Z " fill="#050100" transform="translate(376,215)"/>
<path d="M0 0 C3.91829896 3.56462827 6.72937963 7.7095573 9.6875 12.0625 C10.18572266 12.78244141 10.68394531 13.50238281 11.19726562 14.24414062 C16.06113634 21.35185944 16.06113634 21.35185944 15.90600586 25.53393555 C15 28 15 28 12.62329102 29.39379883 C11.59389404 29.74466553 10.56449707 30.09553223 9.50390625 30.45703125 C8.38822266 30.84697266 7.27253906 31.23691406 6.12304688 31.63867188 C4.94806641 32.02603516 3.77308594 32.41339844 2.5625 32.8125 C0.80583008 33.42254883 0.80583008 33.42254883 -0.98632812 34.04492188 C-9.59330357 37 -9.59330357 37 -12 37 C-10.7503619 29.85866028 -8.89967426 23.10769601 -6.5625 16.25 C-6.26279297 15.34378906 -5.96308594 14.43757813 -5.65429688 13.50390625 C-4.0702323 8.79638246 -2.36560048 4.36948835 0 0 Z " fill="#118AC4" transform="translate(133,313)"/>
<path d="M0 0 C15.76523702 -1.66747699 15.76523702 -1.66747699 21.046875 2.2734375 C23.24711634 5.1836858 24.89125781 7.51873744 26 11 C25.421875 13.35546875 25.421875 13.35546875 24 16 C23.37256768 17.29309345 22.74779994 18.58748157 22.125 19.8828125 C21.41876242 21.29792287 20.71037878 22.71196396 20 24.125 C19.64421875 24.84042969 19.2884375 25.55585938 18.921875 26.29296875 C18.57640625 26.98261719 18.2309375 27.67226563 17.875 28.3828125 C17.56304687 29.00559082 17.25109375 29.62836914 16.9296875 30.27001953 C16 32 16 32 14 35 C13.61521484 34.04867187 13.61521484 34.04867187 13.22265625 33.078125 C11.12310904 27.96003685 8.96256703 22.88725517 6.6640625 17.85546875 C6.25663818 16.9624707 5.84921387 16.06947266 5.42944336 15.14941406 C4.60701308 13.35355098 3.77976171 11.55988729 2.94750977 9.76855469 C2.56651123 8.93614258 2.1855127 8.10373047 1.79296875 7.24609375 C1.4477417 6.50029053 1.10251465 5.7544873 0.74682617 4.98608398 C0 3 0 3 0 0 Z " fill="#F5F9FC" transform="translate(153,366)"/>
<path d="M0 0 C1.49304984 7.59807572 2.64585846 15.56748827 0 23 C-6.20653631 30.48211704 -17.3082463 38.09982372 -27 40 C-26.44570313 38.84242188 -25.89140625 37.68484375 -25.3203125 36.4921875 C-24.58836036 34.95321122 -23.85659964 33.41414388 -23.125 31.875 C-22.76019531 31.11445313 -22.39539063 30.35390625 -22.01953125 29.5703125 C-18.48118037 22.58719028 -18.48118037 22.58719028 -16.92431641 15.03076172 C-16.72021745 9.72789977 -16.72021745 9.72789977 -14.53515625 7.51953125 C-12.57751968 6.19680384 -10.59962131 5.08255704 -8.5 4 C-7.79746094 3.60683594 -7.09492188 3.21367187 -6.37109375 2.80859375 C-1.2921385 0 -1.2921385 0 0 0 Z " fill="#060100" transform="translate(377,164)"/>
<path d="M0 0 C-1.22388497 12.51316872 -4.68087779 25.25474255 -13 35 C-13.33 35 -13.66 35 -14 35 C-14 25.1 -14 15.2 -14 5 C-2 0 -2 0 0 0 Z " fill="#F5F9FA" transform="translate(646,403)"/>
<path d="M0 0 C0.33 0 0.66 0 1 0 C1 6.93 1 13.86 1 21 C-1.6915625 21.5878125 -1.6915625 21.5878125 -4.4375 22.1875 C-11.51234058 23.9436661 -16.98938174 26.99292116 -23 31 C-21.29131152 27.22241303 -18.96510371 23.92103822 -16.5625 20.5625 C-16.12945557 19.95647949 -15.69641113 19.35045898 -15.25024414 18.72607422 C-11.97975779 14.21477668 -8.53308186 9.88091002 -4.9375 5.625 C-4.46062744 5.05982666 -3.98375488 4.49465332 -3.49243164 3.91235352 C-2.35365434 2.58602754 -1.18028335 1.28952918 0 0 Z " fill="#080101" transform="translate(376,192)"/>
<path d="M0 0 C2.14193224 1.42795483 4.27840137 2.85984317 6.3984375 4.3203125 C8.93791389 6.03823813 8.93791389 6.03823813 11.6015625 7.2421875 C14.30538365 8.62414053 16.06449711 9.64334602 18 12 C18.76581566 16.75443886 18.52949961 21.22796646 18 26 C14.2501339 21.42608926 10.78186774 16.66218959 7.3125 11.875 C6.71888672 11.06417969 6.12527344 10.25335937 5.51367188 9.41796875 C4.66579102 8.24814453 4.66579102 8.24814453 3.80078125 7.0546875 C3.02988159 5.99483643 3.02988159 5.99483643 2.2434082 4.91357422 C1 3 1 3 0 0 Z " fill="#0D0604" transform="translate(359,612)"/>
<path d="M0 0 C0 5.99838839 -5.18665985 11.35108932 -9.1875 15.5625 C-12 18 -12 18 -15 18 C-15.33 15.36 -15.66 12.72 -16 10 C-8.08 5.05 -8.08 5.05 0 0 Z " fill="#0C0201" transform="translate(356,176)"/>
<path d="M0 0 C3.34861059 1.38563197 5.29014301 2.76027096 7 6 C7.25 8.875 7.25 8.875 6 12 C3.18193567 14.32635704 0.17116436 16.19339727 -3 18 C-2 12 -1 6 0 0 Z " fill="#F7D412" transform="translate(353,398)"/>
<path d="M0 0 C5.28 0 10.56 0 16 0 C13.35161227 2.64838773 11.17959354 4.24184787 8 6.125 C7.13375 6.64320313 6.2675 7.16140625 5.375 7.6953125 C3 9 3 9 0 10 C0 6.7 0 3.4 0 0 Z " fill="#1886BE" transform="translate(338,164)"/>
<path d="M0 0 C3.3 0 6.6 0 10 0 C10 2.31 10 4.62 10 7 C6.7 6.34 3.4 5.68 0 5 C0 3.35 0 1.7 0 0 Z " fill="#BA3125" transform="translate(377,609)"/>
<path d="M0 0 C0.66 0 1.32 0 2 0 C3.66666667 3.33333333 5.33333333 6.66666667 7 10 C3.7 10 0.4 10 -3 10 C-2.01 6.7 -1.02 3.4 0 0 Z " fill="#2996C2" transform="translate(626,365)"/>
<path d="M0 0 C0.33 0.66 0.66 1.32 1 2 C0.00390625 3.9453125 0.00390625 3.9453125 -1.4375 6.125 C-1.91058594 6.84945312 -2.38367188 7.57390625 -2.87109375 8.3203125 C-3.24363281 8.87460938 -3.61617188 9.42890625 -4 10 C-5.32 9.34 -6.64 8.68 -8 8 C-7.9375 6.25 -7.9375 6.25 -7 4 C-4.75835678 2.40498463 -2.46433357 1.25456982 0 0 Z " fill="#0B0101" transform="translate(321,197)"/>
<path d="M0 0 C0.99 0.66 1.98 1.32 3 2 C3 2.99 3 3.98 3 5 C0 7.1875 0 7.1875 -3 9 C-3.66 8.67 -4.32 8.34 -5 8 C-3.35 5.36 -1.7 2.72 0 0 Z " fill="#1C84BB" transform="translate(150,280)"/>
</svg>
